<svg width="23" height="24" viewBox="0 0 23 24" fill="none" xmlns="http://www.w3.org/2000/svg">
<path d="M11.5 11.5518C15.1297 11.5518 18.0714 8.98191 18.0714 5.811C18.0714 2.6401 15.1297 0.0701904 11.5 0.0701904C7.87031 0.0701904 4.92857 2.6401 4.92857 5.811C4.92857 8.98191 7.87031 11.5518 11.5 11.5518ZM16.4183 13.0139L13.9643 21.5982L12.3214 15.4986L13.9643 12.987H9.03571L10.6786 15.4986L9.03571 21.5982L6.5817 13.0139C2.92121 13.1664 0 15.7812 0 19.0149V20.8806C0 22.0692 1.10379 23.0334 2.46429 23.0334H20.5357C21.8962 23.0334 23 22.0692 23 20.8806V19.0149C23 15.7812 20.0788 13.1664 16.4183 13.0139Z" fill="#CBD0DF"/>
</svg>
