<svg width="23" height="23" viewBox="0 0 23 23" fill="none" xmlns="http://www.w3.org/2000/svg">
<path d="M11.5 11.5C15.1297 11.5 18.0714 8.92598 18.0714 5.75C18.0714 2.57402 15.1297 0 11.5 0C7.87031 0 4.92857 2.57402 4.92857 5.75C4.92857 8.92598 7.87031 11.5 11.5 11.5ZM16.4183 12.9645L13.9643 21.5625L12.3214 15.4531L13.9643 12.9375H9.03571L10.6786 15.4531L9.03571 21.5625L6.5817 12.9645C2.92121 13.1172 0 15.7361 0 18.975V20.8438C0 22.0342 1.10379 23 2.46429 23H20.5357C21.8962 23 23 22.0342 23 20.8438V18.975C23 15.7361 20.0788 13.1172 16.4183 12.9645Z" fill="#29D5F8"/>
</svg>
