<svg width="25" height="21" viewBox="0 0 25 21" fill="none" xmlns="http://www.w3.org/2000/svg">
<path d="M24.2637 1.40349C22.7485 0.678304 21.2321 0.402405 19.7165 0.402405C14.9052 0.401959 10.0944 3.18101 5.28312 3.18101C4.0765 3.18101 2.87066 3.00629 1.66404 2.56948C1.52849 2.52045 1.39256 2.49728 1.25975 2.49728C0.587491 2.49728 0 3.09097 0 3.9151V18.0559C0 18.6189 0.282417 19.1524 0.735926 19.369C2.25114 20.0946 3.76752 20.3705 5.28312 20.3705C10.0944 20.3705 14.9056 17.5915 19.7169 17.5915C20.9235 17.5915 22.1293 17.7662 23.336 18.203C23.4715 18.252 23.6074 18.2752 23.7403 18.2752C24.4125 18.2752 25 17.6815 25 16.8574V2.71702C24.9996 2.15363 24.7172 1.62055 24.2637 1.40349ZM1.87497 4.86938C2.6609 5.09403 3.4812 5.20679 4.32493 5.26741C4.09525 6.57737 3.08589 7.56464 1.87497 7.56464V4.86938ZM1.87497 17.5723V15.4427C3.21753 15.4427 4.30384 16.6582 4.3636 18.1794C3.48354 18.0987 2.6609 17.8981 1.87497 17.5723ZM12.4998 14.6654C10.7737 14.6654 9.37485 12.7492 9.37485 10.3865C9.37485 8.02328 10.774 6.10759 12.4998 6.10759C14.2256 6.10759 15.6248 8.02328 15.6248 10.3865C15.6248 12.7501 14.2252 14.6654 12.4998 14.6654ZM23.1246 15.9036C22.4403 15.7079 21.7297 15.5982 21.0028 15.5274C21.2321 14.3649 22.077 13.4824 23.1246 13.3309V15.9036ZM23.1246 5.37973C21.918 5.20546 20.9817 4.05595 20.9446 2.63634C21.7079 2.73306 22.4325 2.91402 23.1246 3.20062V5.37973Z" fill="#0FCDC2"/>
</svg>
