<svg width="20" height="24" viewBox="0 0 20 24" fill="none" xmlns="http://www.w3.org/2000/svg">
<path d="M14 13.7046C12.7188 13.7046 12.1027 14.4222 10 14.4222C7.89732 14.4222 7.28571 13.7046 6 13.7046C2.6875 13.7046 0 16.4046 0 19.7325V20.8806C0 22.0692 0.959821 23.0334 2.14286 23.0334H17.8571C19.0402 23.0334 20 22.0692 20 20.8806V19.7325C20 16.4046 17.3125 13.7046 14 13.7046ZM17.8571 20.8806H2.14286V19.7325C2.14286 17.5976 3.875 15.8574 6 15.8574C6.65179 15.8574 7.70982 16.575 10 16.575C12.308 16.575 13.3438 15.8574 14 15.8574C16.125 15.8574 17.8571 17.5976 17.8571 19.7325V20.8806ZM10 12.987C13.5491 12.987 16.4286 10.0942 16.4286 6.52861C16.4286 2.96302 13.5491 0.0701904 10 0.0701904C6.45089 0.0701904 3.57143 2.96302 3.57143 6.52861C3.57143 10.0942 6.45089 12.987 10 12.987ZM10 2.223C12.3616 2.223 14.2857 4.15604 14.2857 6.52861C14.2857 8.90118 12.3616 10.8342 10 10.8342C7.63839 10.8342 5.71429 8.90118 5.71429 6.52861C5.71429 4.15604 7.63839 2.223 10 2.223Z" fill="#CBD0DF"/>
</svg>
