<svg width="18" height="24" viewBox="0 0 18 24" fill="none" xmlns="http://www.w3.org/2000/svg">
<path d="M9 0.403992C4.02429 0.403992 0 3.99776 0 8.44116C0 14.469 9 23.3673 9 23.3673C9 23.3673 18 14.469 18 8.44116C18 3.99776 13.9757 0.403992 9 0.403992ZM9 11.3116C8.14752 11.3116 7.32995 11.0092 6.72716 10.4709C6.12436 9.93255 5.78571 9.20245 5.78571 8.44116C5.78571 7.67988 6.12436 6.94978 6.72716 6.41147C7.32995 5.87316 8.14752 5.57074 9 5.57074C9.85248 5.57074 10.67 5.87316 11.2728 6.41147C11.8756 6.94978 12.2143 7.67988 12.2143 8.44116C12.2143 9.20245 11.8756 9.93255 11.2728 10.4709C10.67 11.0092 9.85248 11.3116 9 11.3116Z" fill="#FFC75B"/>
</svg>
