<svg width="20" height="26" viewBox="0 0 20 26" fill="none" xmlns="http://www.w3.org/2000/svg">
<path d="M8.125 14.2469H6.875C5.8375 14.2469 5 13.4051 5 12.3623C5 11.3195 5.8375 10.4777 6.875 10.4777H8.125V9.22128C8.125 8.17846 8.9625 7.33667 10 7.33667C11.0375 7.33667 11.875 8.17846 11.875 9.22128V10.4777H13.125C14.1625 10.4777 15 11.3195 15 12.3623C15 13.4051 14.1625 14.2469 13.125 14.2469H11.875V15.5033C11.875 16.5462 11.0375 17.388 10 17.388C8.9625 17.388 8.125 16.5462 8.125 15.5033V14.2469ZM9.125 0.753077L1.625 3.58C0.65 3.95692 0 4.88667 0 5.94205V11.8472C0 18.1921 4.2625 24.1098 10 25.5546C15.7375 24.1098 20 18.1921 20 11.8472V5.94205C19.9991 5.43077 19.8431 4.93192 19.5527 4.51212C19.2624 4.09231 18.8515 3.77151 18.375 3.59257L10.875 0.765641C10.3125 0.539487 9.6875 0.539487 9.125 0.753077Z" fill="#0FCDC2"/>
</svg>
