<svg width="25" height="26" viewBox="0 0 25 26" fill="none" xmlns="http://www.w3.org/2000/svg">
<path d="M23.8281 7.17233H23.4375V4.83232C23.4375 2.64832 18.5938 0.932312 12.5 0.932312C6.40625 0.932312 1.5625 2.64832 1.5625 4.83232V7.17233H1.17188C0.524902 7.17233 0 7.69591 0 8.34234V12.2423C0 12.8883 0.524902 13.4124 1.17188 13.4124H1.5625V21.2124C1.5625 22.0738 2.26221 22.7724 3.125 22.7724V24.3324C3.125 25.1938 3.82471 25.8924 4.6875 25.8924H6.25C7.11279 25.8924 7.8125 25.1938 7.8125 24.3324V22.7724H17.1875V24.3324C17.1875 25.1938 17.8872 25.8924 18.75 25.8924H20.3125C21.1753 25.8924 21.875 25.1938 21.875 24.3324V22.7724H22.1875C22.9688 22.7724 23.4375 22.1484 23.4375 21.5244V13.4124H23.8281C24.4751 13.4124 25 12.8883 25 12.2423V8.34234C25 7.69591 24.4751 7.17233 23.8281 7.17233ZM7.8125 4.44232C7.8125 4.22685 7.9873 4.05232 8.20312 4.05232H16.7969C17.0127 4.05232 17.1875 4.22685 17.1875 4.44232V5.22233C17.1875 5.4378 17.0127 5.61233 16.7969 5.61233H8.20312C7.9873 5.61233 7.8125 5.4378 7.8125 5.22233V4.44232ZM5.46875 20.4324C4.60596 20.4324 3.90625 19.7338 3.90625 18.8724C3.90625 18.011 4.60596 17.3124 5.46875 17.3124C6.33154 17.3124 7.03125 18.011 7.03125 18.8724C7.03125 19.7338 6.33154 20.4324 5.46875 20.4324ZM11.7188 14.9724H6.25C5.38721 14.9724 4.6875 14.2738 4.6875 13.4124V8.73234C4.6875 7.87092 5.38721 7.17233 6.25 7.17233H11.7188V14.9724ZM13.2812 14.9724V7.17233H18.75C19.6128 7.17233 20.3125 7.87092 20.3125 8.73234V13.4124C20.3125 14.2738 19.6128 14.9724 18.75 14.9724H13.2812ZM19.5312 20.4324C18.6685 20.4324 17.9688 19.7338 17.9688 18.8724C17.9688 18.011 18.6685 17.3124 19.5312 17.3124C20.394 17.3124 21.0938 18.011 21.0938 18.8724C21.0938 19.7338 20.394 20.4324 19.5312 20.4324Z" fill="#11AC6A"/>
</svg>
