<svg width="15" height="18" viewBox="0 0 15 18" fill="none" xmlns="http://www.w3.org/2000/svg">
<path d="M7.5 1.2C5.8424 1.2 4.25269 1.83214 3.08058 2.95736C1.90848 4.08258 1.25 5.6087 1.25 7.2V8.4H2.5C2.83152 8.4 3.14946 8.52643 3.38388 8.75147C3.6183 8.97652 3.75 9.28174 3.75 9.6V13.2C3.75 13.5183 3.6183 13.8235 3.38388 14.0485C3.14946 14.2736 2.83152 14.4 2.5 14.4H1.25C0.918479 14.4 0.600537 14.2736 0.366116 14.0485C0.131696 13.8235 0 13.5183 0 13.2V7.2C-1.46764e-08 6.25448 0.193993 5.31822 0.570903 4.44468C0.947814 3.57114 1.50026 2.77741 2.1967 2.10883C2.89314 1.44025 3.71993 0.909901 4.62987 0.548067C5.53982 0.186234 6.51509 0 7.5 0C8.48491 0 9.46018 0.186234 10.3701 0.548067C11.2801 0.909901 12.1069 1.44025 12.8033 2.10883C13.4997 2.77741 14.0522 3.57114 14.4291 4.44468C14.806 5.31822 15 6.25448 15 7.2V14.4C15 15.1957 14.6708 15.9587 14.0847 16.5213C13.4987 17.0839 12.7038 17.4 11.875 17.4H9.2075C9.09779 17.5824 8.94 17.7339 8.74998 17.8392C8.55996 17.9445 8.34442 18 8.125 18H6.875C6.54348 18 6.22554 17.8736 5.99112 17.6485C5.7567 17.4235 5.625 17.1183 5.625 16.8C5.625 16.4817 5.7567 16.1765 5.99112 15.9515C6.22554 15.7264 6.54348 15.6 6.875 15.6H8.125C8.34442 15.6 8.55996 15.6555 8.74998 15.7608C8.94 15.8661 9.09779 16.0176 9.2075 16.2H11.875C12.3723 16.2 12.8492 16.0104 13.2008 15.6728C13.5525 15.3352 13.75 14.8774 13.75 14.4H12.5C12.1685 14.4 11.8505 14.2736 11.6161 14.0485C11.3817 13.8235 11.25 13.5183 11.25 13.2V9.6C11.25 9.28174 11.3817 8.97652 11.6161 8.75147C11.8505 8.52643 12.1685 8.4 12.5 8.4H13.75V7.2C13.75 6.41207 13.5883 5.63185 13.2742 4.9039C12.9602 4.17595 12.4998 3.51451 11.9194 2.95736C11.3391 2.40021 10.6501 1.95825 9.89177 1.65672C9.13349 1.35519 8.32076 1.2 7.5 1.2Z" fill="white"/>
</svg>
