<svg width="28" height="21" viewBox="0 0 28 21" fill="none" xmlns="http://www.w3.org/2000/svg">
<path d="M25.6097 0.402507H14.6829C14.4118 0.402507 14.1776 0.490109 14 0.635682C13.8101 0.482001 13.5672 0.399073 13.3171 0.402507H2.39024C1.79677 0.402507 1.36584 0.808953 1.36584 1.3687V19.4043C1.36584 19.9641 1.79677 20.3705 2.39024 20.3705H13.3171C13.5882 20.3705 13.8224 20.2829 14 20.1374C14.1776 20.2829 14.4118 20.3705 14.6829 20.3705H25.6097C26.2032 20.3705 26.6341 19.9641 26.6341 19.4043V1.3687C26.6341 0.808953 26.2032 0.402507 25.6097 0.402507ZM13.3171 19.7264H2.39024C2.17648 19.7264 2.04877 19.606 2.04877 19.4043V1.3687C2.04877 1.16709 2.17648 1.04664 2.39024 1.04664H13.3171C13.5308 1.04664 13.6585 1.16709 13.6585 1.3687V19.4043C13.6585 19.606 13.5308 19.7264 13.3171 19.7264ZM25.9512 19.4043C25.9512 19.606 25.8235 19.7264 25.6097 19.7264H14.6829C14.4692 19.7264 14.3415 19.606 14.3415 19.4043V1.3687C14.3415 1.16709 14.4692 1.04664 14.6829 1.04664H25.6097C25.8235 1.04664 25.9512 1.16709 25.9512 1.3687V19.4043Z" fill="#6B46C1"/>
<path d="M27.6585 1.69073C27.568 1.69073 27.4811 1.72467 27.4171 1.78507C27.3531 1.84546 27.3171 1.92738 27.3171 2.0128V18.7602C27.3171 18.8456 27.3531 18.9275 27.4171 18.9879C27.4811 19.0483 27.568 19.0822 27.6585 19.0822C27.7491 19.0822 27.836 19.0483 27.9 18.9879C27.964 18.9275 28 18.8456 28 18.7602V2.0128C28 1.92738 27.964 1.84546 27.9 1.78507C27.836 1.72467 27.7491 1.69073 27.6585 1.69073Z" fill="#6B46C1"/>
<path d="M0.341463 19.0822C0.432025 19.0822 0.518877 19.0483 0.582914 18.9879C0.646951 18.9275 0.682926 18.8456 0.682926 18.7602V2.0128C0.682926 1.92738 0.646951 1.84546 0.582914 1.78507C0.518877 1.72467 0.432025 1.69073 0.341463 1.69073C0.250901 1.69073 0.164049 1.72467 0.100012 1.78507C0.0359755 1.84546 0 1.92738 0 2.0128L0 18.7602C0 18.8456 0.0359755 18.9275 0.100012 18.9879C0.164049 19.0483 0.250901 19.0822 0.341463 19.0822Z" fill="#6B46C1"/>
<path d="M11.9512 6.19965H3.75611C3.66554 6.19965 3.57869 6.23363 3.51465 6.29413C3.45062 6.35462 3.41464 6.43667 3.41464 6.52222C3.41464 6.60778 3.45062 6.68983 3.51465 6.75032C3.57869 6.81082 3.66554 6.8448 3.75611 6.8448H11.9512C12.0418 6.8448 12.1286 6.81082 12.1927 6.75032C12.2567 6.68983 12.2927 6.60778 12.2927 6.52222C12.2927 6.43667 12.2567 6.35462 12.1927 6.29413C12.1286 6.23363 12.0418 6.19965 11.9512 6.19965Z" fill="#6B46C1"/>
<path d="M11.9512 8.77618H3.75611C3.66554 8.77618 3.57869 8.81012 3.51465 8.87052C3.45062 8.93091 3.41464 9.01283 3.41464 9.09825C3.41464 9.18367 3.45062 9.26559 3.51465 9.32599C3.57869 9.38639 3.66554 9.42032 3.75611 9.42032H11.9512C12.0418 9.42032 12.1286 9.38639 12.1927 9.32599C12.2567 9.26559 12.2927 9.18367 12.2927 9.09825C12.2927 9.01283 12.2567 8.93091 12.1927 8.87052C12.1286 8.81012 12.0418 8.77618 11.9512 8.77618Z" fill="#6B46C1"/>
<path d="M11.9512 3.62314H3.75611C3.66554 3.62314 3.57869 3.65707 3.51465 3.71747C3.45062 3.77787 3.41464 3.85979 3.41464 3.94521C3.41464 4.03062 3.45062 4.11254 3.51465 4.17294C3.57869 4.23334 3.66554 4.26727 3.75611 4.26727H11.9512C12.0418 4.26727 12.1286 4.23334 12.1927 4.17294C12.2567 4.11254 12.2927 4.03062 12.2927 3.94521C12.2927 3.85979 12.2567 3.77787 12.1927 3.71747C12.1286 3.65707 12.0418 3.62314 11.9512 3.62314Z" fill="#6B46C1"/>
<path d="M11.9512 11.3527H3.75611C3.66554 11.3527 3.57869 11.3867 3.51465 11.447C3.45062 11.5074 3.41464 11.5894 3.41464 11.6748C3.41464 11.7602 3.45062 11.8421 3.51465 11.9025C3.57869 11.9629 3.66554 11.9968 3.75611 11.9968H11.9512C12.0418 11.9968 12.1286 11.9629 12.1927 11.9025C12.2567 11.8421 12.2927 11.7602 12.2927 11.6748C12.2927 11.5894 12.2567 11.5074 12.1927 11.447C12.1286 11.3867 12.0418 11.3527 11.9512 11.3527Z" fill="#6B46C1"/>
<path d="M11.9512 13.9292H3.75611C3.66554 13.9292 3.57869 13.9631 3.51465 14.0235C3.45062 14.0839 3.41464 14.1658 3.41464 14.2513C3.41464 14.3367 3.45062 14.4186 3.51465 14.479C3.57869 14.5394 3.66554 14.5733 3.75611 14.5733H11.9512C12.0418 14.5733 12.1286 14.5394 12.1927 14.479C12.2567 14.4186 12.2927 14.3367 12.2927 14.2513C12.2927 14.1658 12.2567 14.0839 12.1927 14.0235C12.1286 13.9631 12.0418 13.9292 11.9512 13.9292Z" fill="#6B46C1"/>
<path d="M11.9512 16.5057H3.75611C3.66554 16.5057 3.57869 16.5397 3.51465 16.6002C3.45062 16.6607 3.41464 16.7428 3.41464 16.8283C3.41464 16.9139 3.45062 16.9959 3.51465 17.0564C3.57869 17.1169 3.66554 17.1509 3.75611 17.1509H11.9512C12.0418 17.1509 12.1286 17.1169 12.1927 17.0564C12.2567 16.9959 12.2927 16.9139 12.2927 16.8283C12.2927 16.7428 12.2567 16.6607 12.1927 16.6002C12.1286 16.5397 12.0418 16.5057 11.9512 16.5057Z" fill="#6B46C1"/>
<path d="M24.2439 6.19965H16.0488C15.9582 6.19965 15.8714 6.23363 15.8073 6.29413C15.7433 6.35462 15.7073 6.43667 15.7073 6.52222C15.7073 6.60778 15.7433 6.68983 15.8073 6.75032C15.8714 6.81082 15.9582 6.8448 16.0488 6.8448H24.2439C24.3345 6.8448 24.4213 6.81082 24.4853 6.75032C24.5494 6.68983 24.5854 6.60778 24.5854 6.52222C24.5854 6.43667 24.5494 6.35462 24.4853 6.29413C24.4213 6.23363 24.3345 6.19965 24.2439 6.19965Z" fill="#6B46C1"/>
<path d="M24.2439 8.77618H16.0488C15.9582 8.77618 15.8714 8.81012 15.8073 8.87052C15.7433 8.93091 15.7073 9.01283 15.7073 9.09825C15.7073 9.18367 15.7433 9.26559 15.8073 9.32599C15.8714 9.38639 15.9582 9.42032 16.0488 9.42032H24.2439C24.3345 9.42032 24.4213 9.38639 24.4853 9.32599C24.5494 9.26559 24.5854 9.18367 24.5854 9.09825C24.5854 9.01283 24.5494 8.93091 24.4853 8.87052C24.4213 8.81012 24.3345 8.77618 24.2439 8.77618Z" fill="#6B46C1"/>
<path d="M24.2439 3.62314H16.0488C15.9582 3.62314 15.8714 3.65707 15.8073 3.71747C15.7433 3.77787 15.7073 3.85979 15.7073 3.94521C15.7073 4.03062 15.7433 4.11254 15.8073 4.17294C15.8714 4.23334 15.9582 4.26727 16.0488 4.26727H24.2439C24.3345 4.26727 24.4213 4.23334 24.4853 4.17294C24.5494 4.11254 24.5854 4.03062 24.5854 3.94521C24.5854 3.85979 24.5494 3.77787 24.4853 3.71747C24.4213 3.65707 24.3345 3.62314 24.2439 3.62314Z" fill="#6B46C1"/>
<path d="M24.2439 11.3527H16.0488C15.9582 11.3527 15.8714 11.3867 15.8073 11.447C15.7433 11.5074 15.7073 11.5894 15.7073 11.6748C15.7073 11.7602 15.7433 11.8421 15.8073 11.9025C15.8714 11.9629 15.9582 11.9968 16.0488 11.9968H24.2439C24.3345 11.9968 24.4213 11.9629 24.4853 11.9025C24.5494 11.8421 24.5854 11.7602 24.5854 11.6748C24.5854 11.5894 24.5494 11.5074 24.4853 11.447C24.4213 11.3867 24.3345 11.3527 24.2439 11.3527Z" fill="#6B46C1"/>
<path d="M24.2439 13.9292H16.0488C15.9582 13.9292 15.8714 13.9631 15.8073 14.0235C15.7433 14.0839 15.7073 14.1658 15.7073 14.2513C15.7073 14.3367 15.7433 14.4186 15.8073 14.479C15.8714 14.5394 15.9582 14.5733 16.0488 14.5733H24.2439C24.3345 14.5733 24.4213 14.5394 24.4853 14.479C24.5494 14.4186 24.5854 14.3367 24.5854 14.2513C24.5854 14.1658 24.5494 14.0839 24.4853 14.0235C24.4213 13.9631 24.3345 13.9292 24.2439 13.9292Z" fill="#6B46C1"/>
<path d="M24.2439 16.5057H16.0488C15.9582 16.5057 15.8714 16.5397 15.8073 16.6002C15.7433 16.6607 15.7073 16.7428 15.7073 16.8283C15.7073 16.9139 15.7433 16.9959 15.8073 17.0564C15.8714 17.1169 15.9582 17.1509 16.0488 17.1509H24.2439C24.3345 17.1509 24.4213 17.1169 24.4853 17.0564C24.5494 16.9959 24.5854 16.9139 24.5854 16.8283C24.5854 16.7428 24.5494 16.6607 24.4853 16.6002C24.4213 16.5397 24.3345 16.5057 24.2439 16.5057Z" fill="#6B46C1"/>
</svg>
