<svg width="25" height="25" viewBox="0 0 25 25" fill="none" xmlns="http://www.w3.org/2000/svg">
<path d="M14.9564 16.7168C13.1941 18.5864 10.0448 17.8442 9.30118 15.384C8.55791 12.9249 10.7705 10.5762 13.2751 11.164C16.1203 8.73525 20.5405 4.97788 23.1007 2.89697C23.9936 2.17089 24.7587 2.99077 24.0632 3.85751C22.0331 6.38925 18.2319 10.8329 15.7769 13.6826C16.0133 14.7081 15.7779 15.8453 14.9564 16.7168H14.9564ZM21.1721 12.4986C21.1721 11.7619 20.3676 11.299 19.7274 11.6673C19.0872 12.0357 19.0872 12.9616 19.7274 13.3299C20.3676 13.6983 21.1721 13.2353 21.1721 12.4986ZM6.7355 8.65649C6.7355 7.91977 5.93093 7.45683 5.29075 7.82519C4.65057 8.19355 4.65057 9.11938 5.29075 9.48779C5.93093 9.8562 6.7355 9.39316 6.7355 8.65649ZM5.7731 12.4986C5.7731 11.7619 4.96853 11.299 4.32835 11.6673C3.68812 12.0357 3.68812 12.9616 4.32835 13.3299C4.96858 13.6983 5.7731 13.2353 5.7731 12.4986ZM9.62286 5.77485C9.62286 5.03818 8.81829 4.57524 8.1781 4.94355C7.53792 5.31191 7.53792 6.23779 8.1781 6.60615C8.81829 6.97446 9.62286 6.51152 9.62286 5.77485ZM17.3224 5.77485C17.3224 5.03818 16.5178 4.57524 15.8776 4.94355C15.2374 5.31191 15.2374 6.23779 15.8776 6.60615C16.5178 6.97446 17.3224 6.51152 17.3224 5.77485ZM13.4726 4.8143C13.4726 4.07763 12.668 3.61469 12.0279 3.98305C11.3877 4.35141 11.3877 5.27724 12.0279 5.6456C12.668 6.01396 13.4726 5.55102 13.4726 4.8143ZM21.7786 9.94306C22.9147 14.1401 21.1663 18.9658 16.7518 21.1265C10.1245 24.3704 2.41714 19.1994 2.91192 11.841C3.40645 4.48359 11.7337 0.40688 17.866 4.51894L20.258 2.69428C12.7243 -3.25401 1.51805 1.19394 0.135332 10.6814C-1.24748 20.1689 8.22096 27.6447 17.1375 24.1056C24.1331 21.3289 26.7095 13.3913 23.8569 7.22739L21.7785 9.94306H21.7786Z" fill="#6B46C1"/>
</svg>
