<svg width="23" height="24" viewBox="0 0 23 24" fill="none" xmlns="http://www.w3.org/2000/svg">
<path opacity="0.3" d="M6.89999 11.4459H15.8032V20.198H6.89999V11.4459Z" fill="white"/>
<path d="M11.5 0.0661011C7.01871 0.0661011 2.9529 1.41174 0 3.57789L2.09226 5.12045C4.49613 3.34815 7.83484 2.25413 11.5 2.25413C15.1652 2.25413 18.5039 3.34815 20.9077 5.12045L23 3.57789C19.9497 1.32957 15.8132 0.0663979 11.5 0.0661011ZM4.08065 6.70677L6.20258 8.27122C7.5529 7.27566 9.43742 6.65207 11.5 6.65207C13.5626 6.65207 15.4471 7.27566 16.7974 8.27122L18.9194 6.70677C17.02 5.30643 14.3935 4.44216 11.5 4.44216C8.60645 4.44216 5.98 5.30643 4.08065 6.70677ZM15.7439 9.92318L7.25613 9.91224C6.32129 9.91224 5.56452 10.4702 5.56452 11.1594V21.7823C5.56452 22.4715 6.32129 23.0295 7.25613 23.0295H15.729C16.6639 23.0295 17.4206 22.4715 17.4206 21.7823V11.1594C17.4355 10.4702 16.6787 9.92318 15.7439 9.92318ZM15.9516 20.8524H7.04839V12.1003H15.9516V20.8524Z" fill="#0FCDC2"/>
</svg>
