<svg width="25" height="25" viewBox="0 0 25 25" fill="none" xmlns="http://www.w3.org/2000/svg">
<path d="M21.875 25H3.125C2.26237 25 1.52588 24.6948 0.915527 24.0845C0.305176 23.4741 0 22.7376 0 21.875V3.125C0 2.26237 0.305176 1.52588 0.915527 0.915527C1.52588 0.305176 2.26237 0 3.125 0H21.875C22.7376 0 23.4741 0.305176 24.0845 0.915527C24.6948 1.52588 25 2.26237 25 3.125V21.875C25 22.7376 24.6948 23.4741 24.0845 24.0845C23.4741 24.6948 22.7376 25 21.875 25ZM7.8125 17.9688C7.8125 17.7572 7.73519 17.5741 7.58057 17.4194C7.42594 17.2648 7.24284 17.1875 7.03125 17.1875H5.46875C5.25716 17.1875 5.07406 17.2648 4.91943 17.4194C4.76481 17.5741 4.6875 17.7572 4.6875 17.9688V21.0938C4.6875 21.3053 4.76481 21.4884 4.91943 21.6431C5.07406 21.7977 5.25716 21.875 5.46875 21.875H7.03125C7.24284 21.875 7.42594 21.7977 7.58057 21.6431C7.73519 21.4884 7.8125 21.3053 7.8125 21.0938V17.9688ZM14.0625 11.7188C14.0625 11.5072 13.9852 11.3241 13.8306 11.1694C13.6759 11.0148 13.4928 10.9375 13.2812 10.9375H11.7188C11.5072 10.9375 11.3241 11.0148 11.1694 11.1694C11.0148 11.3241 10.9375 11.5072 10.9375 11.7188V21.0938C10.9375 21.3053 11.0148 21.4884 11.1694 21.6431C11.3241 21.7977 11.5072 21.875 11.7188 21.875H13.2812C13.4928 21.875 13.6759 21.7977 13.8306 21.6431C13.9852 21.4884 14.0625 21.3053 14.0625 21.0938V11.7188ZM20.3125 3.90625C20.3125 3.69466 20.2352 3.51156 20.0806 3.35693C19.9259 3.20231 19.7428 3.125 19.5312 3.125H17.9688C17.7572 3.125 17.5741 3.20231 17.4194 3.35693C17.2648 3.51156 17.1875 3.69466 17.1875 3.90625V21.0938C17.1875 21.3053 17.2648 21.4884 17.4194 21.6431C17.5741 21.7977 17.7572 21.875 17.9688 21.875H19.5312C19.7428 21.875 19.9259 21.7977 20.0806 21.6431C20.2352 21.4884 20.3125 21.3053 20.3125 21.0938V3.90625Z" fill="#FB6C55"/>
</svg>
