<svg width="26" height="23" viewBox="0 0 26 23" fill="none" xmlns="http://www.w3.org/2000/svg">
<path d="M2.6 14.1596H26V22.3964H23.4V19.6508H2.6V22.3964H0V0.431458H2.6V14.1596ZM13 5.9227H23.4C24.0896 5.9227 24.7509 6.21197 25.2385 6.72687C25.7261 7.24178 26 7.94014 26 8.66832V12.7868H13V5.9227ZM7.8 12.7868C6.76566 12.7868 5.77368 12.3528 5.04228 11.5805C4.31089 10.8081 3.9 9.7606 3.9 8.66832C3.9 7.57604 4.31089 6.5285 5.04228 5.75615C5.77368 4.98379 6.76566 4.54989 7.8 4.54989C8.83434 4.54989 9.82632 4.98379 10.5577 5.75615C11.2891 6.5285 11.7 7.57604 11.7 8.66832C11.7 9.7606 11.2891 10.8081 10.5577 11.5805C9.82632 12.3528 8.83434 12.7868 7.8 12.7868Z" fill="#6B46C1"/>
</svg>
