<svg width="25" height="25" viewBox="0 0 25 25" fill="none" xmlns="http://www.w3.org/2000/svg">
<path d="M25 12.5C25 19.4034 19.4036 25 12.5 25C5.59642 25 0 19.4042 0 12.5C0 5.59623 5.59601 0 12.5 0C19.4036 0 25 5.59665 25 12.5ZM12.5 2.7942C7.13915 2.7942 2.79347 7.13974 2.79347 12.5004C2.79347 17.8607 7.13874 22.207 12.5 22.207C17.8608 22.207 22.2065 17.8607 22.2065 12.5004C22.2069 7.14015 17.8608 2.7942 12.5 2.7942ZM9.94127 9.59543C9.94127 7.62363 11.206 6.93136 12.4699 6.93136C13.2224 6.93136 13.8665 7.00096 14.3813 7.63845C15.5855 9.12883 14.2416 10.5751 12.7104 11.3407C11.6269 11.8827 11.115 12.801 11.115 14.0797V16.9403H13.9744V15.2543C13.9744 12.6804 15.6299 13.3273 16.8341 11.7175C18.4625 9.53983 18.1104 7.08497 15.9005 5.33596C13.3727 3.3341 10.5121 4.32741 9.71476 4.86937C9.05212 5.31949 6.70466 6.99148 7.15603 10.5883L9.93468 10.5941C9.93468 10.5945 9.94045 10.2576 9.94045 9.59543H9.94127ZM13.9752 20.8534V17.9187H11.1158V20.8534H13.9752Z" fill="#B54C8F"/>
</svg>
