<svg width="19" height="24" viewBox="0 0 19 24" fill="none" xmlns="http://www.w3.org/2000/svg">
<path d="M14.0885 0.150879H4.24031C3.98831 0.150879 2.66643 0.22551 1.42444 1.70206C0.201562 3.15449 0.166687 4.58511 0.166687 4.74355V17.3734C0.166687 17.9824 0.40374 18.5665 0.825696 18.9972C1.24765 19.4278 1.81995 19.6698 2.41668 19.6698H3.54168L1.29169 23.1143H3.93881L4.68918 21.9661H13.6892L14.4508 23.1143H17.0417L14.7917 19.6698H15.9167C16.5134 19.6698 17.0857 19.4278 17.5077 18.9972C17.9296 18.5665 18.1667 17.9824 18.1667 17.3734V4.74355C18.1678 4.5277 18.1307 3.09708 16.8965 1.68368C15.596 0.193361 14.2393 0.150879 14.0885 0.150879ZM6.91668 2.44722H11.4167V4.74355H6.91668V2.44722ZM4.10418 17.3734C3.65648 17.3733 3.22718 17.1916 2.91071 16.8684C2.59424 16.5452 2.41654 16.1069 2.41668 15.65C2.41683 15.1931 2.59483 14.7549 2.9115 14.432C3.22818 14.109 3.65761 13.9276 4.10531 13.9278C4.55301 13.9279 4.98232 14.1096 5.29878 14.4328C5.61525 14.756 5.79295 15.1942 5.79281 15.6512C5.79266 16.1081 5.61466 16.5462 5.29799 16.8692C4.98131 17.1922 4.55188 17.3736 4.10418 17.3734ZM14.2292 17.3734C13.7815 17.3733 13.3522 17.1916 13.0357 16.8684C12.7192 16.5452 12.5415 16.1069 12.5417 15.65C12.5418 15.1931 12.7198 14.7549 13.0365 14.432C13.3532 14.109 13.7826 13.9276 14.2303 13.9278C14.678 13.9279 15.1073 14.1096 15.4238 14.4328C15.7402 14.756 15.9179 15.1942 15.9178 15.6512C15.9176 16.1081 15.7397 16.5462 15.423 16.8692C15.1063 17.1922 14.6769 17.3736 14.2292 17.3734ZM15.9167 11.6326H2.41668V7.03989H15.9167V11.6326Z" fill="#B54C8F"/>
</svg>
