<svg width="23" height="23" viewBox="0 0 23 23" fill="none" xmlns="http://www.w3.org/2000/svg">
<path fill-rule="evenodd" clip-rule="evenodd" d="M19.1059 5.76617H16.3849V4.24952H18.6064C19.1749 4.24952 19.6333 3.75211 19.6333 3.14113V1.10838C19.6333 0.494531 19.1749 0 18.6064 0H12.5417C11.9732 0 11.5164 0.495969 11.5164 1.10838V3.14113C11.5164 3.75355 11.9732 4.24952 12.5417 4.24952H14.8059V5.76617H3.84484C3.23689 5.76617 2.74396 6.19745 2.74396 6.72648L0 19.1343V23H23V19.1343L20.2084 6.72648C20.2075 6.47128 20.0909 6.22681 19.8842 6.04676C19.6775 5.86671 19.3976 5.76579 19.1059 5.76617ZM6.5773 17.2726H4.88327V15.7675H6.5773V17.2726ZM4.88163 14.3975V12.8923H6.57565V14.3975H4.88163ZM9.86348 17.2942H8.16945V15.7675H9.86348V17.2942ZM9.86348 14.3745H8.14316V12.9139H9.86348V14.3745ZM13.1497 17.2913H11.4293V15.766H13.1497V17.2913ZM11.4293 14.3745V12.8923H13.1497V14.3745H11.4293ZM13.1497 11.4993H4.88327V8.6241H13.1497V11.4993ZM18.0527 11.4993H14.7369V10.0329H18.0527V11.4993Z" fill="#29D5F8"/>
</svg>
