<svg width="25" height="25" viewBox="0 0 25 25" fill="none" xmlns="http://www.w3.org/2000/svg">
<path d="M22.5 13.1579H17.5C17.5 14.6053 16.375 15.7895 15 15.7895H10C8.625 15.7895 7.5 14.6053 7.5 13.1579H2.5L0 19.7368V22.3684C0 23.8158 1.125 25 2.5 25H22.5C23.875 25 25 23.8158 25 22.3684V19.7368L22.5 13.1579ZM5 22.3684C3.8875 22.3684 3.325 20.9474 4.1125 20.1184C4.9 19.2895 6.25 19.8816 6.25 21.0526C6.25 21.7763 5.6875 22.3684 5 22.3684ZM10 22.3684C8.8875 22.3684 8.325 20.9474 9.1125 20.1184C9.9 19.2895 11.25 19.8816 11.25 21.0526C11.25 21.7763 10.6875 22.3684 10 22.3684ZM15 22.3684C13.8875 22.3684 13.325 20.9474 14.1125 20.1184C14.9 19.2895 16.25 19.8816 16.25 21.0526C16.25 21.7763 15.6875 22.3684 15 22.3684ZM20 22.3684C18.8875 22.3684 18.325 20.9474 19.1125 20.1184C19.9 19.2895 21.25 19.8816 21.25 21.0526C21.25 21.7763 20.6875 22.3684 20 22.3684ZM20 9.21053V0H5V9.21053H1.25V11.8421H23.75V9.21053H20ZM7.5 2.63158H17.5V3.94737H7.5V2.63158ZM7.5 5.26316H15V6.57895H7.5" fill="#11AC6A"/>
</svg>
