<svg width="23" height="24" viewBox="0 0 23 24" fill="none" xmlns="http://www.w3.org/2000/svg">
<path fill-rule="evenodd" clip-rule="evenodd" d="M19.1059 5.82715H16.3849V4.31292H18.6064C19.1749 4.31292 19.6333 3.81631 19.6333 3.20631V1.1768C19.6333 0.563931 19.1749 0.0701904 18.6064 0.0701904H12.5417C11.9732 0.0701904 11.5164 0.565367 11.5164 1.1768V3.20631C11.5164 3.81774 11.9732 4.31292 12.5417 4.31292H14.8059V5.82715H3.84484C3.23689 5.82715 2.74396 6.25774 2.74396 6.78593L0 19.1739V23.0334H23V19.1739L20.2084 6.78593C20.2075 6.53113 20.0909 6.28705 19.8842 6.10729C19.6775 5.92752 19.3976 5.82677 19.1059 5.82715ZM6.5773 17.3152H4.88327V15.8125H6.5773V17.3152ZM4.88163 14.4447V12.9419H6.57565V14.4447H4.88163ZM9.86348 17.3368H8.16945V15.8125H9.86348V17.3368ZM9.86348 14.4217H8.14316V12.9634H9.86348V14.4217ZM13.1497 17.3339H11.4293V15.8111H13.1497V17.3339ZM11.4293 14.4217V12.9419H13.1497V14.4217H11.4293ZM13.1497 11.5511H4.88327V8.68052H13.1497V11.5511ZM18.0527 11.5511H14.7369V10.0871H18.0527V11.5511Z" fill="#CBD0DF"/>
</svg>
