<svg width="20" height="24" viewBox="0 0 20 24" fill="none" xmlns="http://www.w3.org/2000/svg">
<path d="M2.5 0.403992C2.5 0.993002 3.1125 1.55216 3.75 1.55216H16.25C16.8913 1.55216 17.5 0.989557 17.5 0.403992H20C20 1.31753 19.6049 2.19365 18.9017 2.83962C18.1984 3.48559 17.2446 3.84849 16.25 3.84849H11.25L11.2513 6.21601C13.6675 6.49642 15.8894 7.57696 17.5002 9.25495C19.1109 10.9329 19.9997 13.0931 20 15.3302V22.2192C20 22.5237 19.8683 22.8157 19.6339 23.031C19.3995 23.2464 19.0815 23.3673 18.75 23.3673H1.25C0.918479 23.3673 0.600537 23.2464 0.366117 23.031C0.131696 22.8157 0 22.5237 0 22.2192V15.3302C4.13424e-05 13.0928 0.888984 10.9324 2.5 9.25436C4.11102 7.57629 6.33337 6.49593 8.75 6.21601V3.84849H3.75C1.675 3.84849 0 2.30995 0 0.403992H2.5ZM10 10.7375C7.2375 10.7375 5 12.7927 5 15.3302C5 17.8676 7.2375 19.9228 10 19.9228C10.8818 19.9233 11.7481 19.7095 12.5109 19.3031C13.2737 18.8967 13.9059 18.3122 14.3433 17.6089C14.7807 16.9056 15.0078 16.1085 15.0015 15.2986C14.9952 14.4886 14.7558 13.6946 14.3075 12.9971L10.8837 16.1431L10.7662 16.2372C10.515 16.4157 10.1992 16.4996 9.88309 16.4719C9.56694 16.4442 9.2741 16.3071 9.06406 16.0883C8.85402 15.8695 8.74252 15.5854 8.75221 15.2939C8.76191 15.0023 8.89207 14.725 9.11625 14.5184L12.54 11.3724C11.7703 10.9562 10.8932 10.737 10 10.7375Z" fill="#66BFFF"/>
</svg>
