<svg width="24" height="29" viewBox="0 0 24 29" fill="none" xmlns="http://www.w3.org/2000/svg">
<path d="M12 15.75C14.0711 15.75 15.75 14.0711 15.75 12C15.75 9.92893 14.0711 8.25 12 8.25C9.92893 8.25 8.25 9.92893 8.25 12C8.25 14.0711 9.92893 15.75 12 15.75Z" stroke="#FEBD2E" stroke-width="2.08333" stroke-linecap="round" stroke-linejoin="round"/>
<path d="M12 2C9.34784 2 6.8043 3.05357 4.92893 4.92893C3.05357 6.8043 2 9.34784 2 12C2 14.365 2.5025 15.9125 3.875 17.625L12 27L20.125 17.625C21.4975 15.9125 22 14.365 22 12C22 9.34784 20.9464 6.8043 19.0711 4.92893C17.1957 3.05357 14.6522 2 12 2V2Z" stroke="#FEBD2E" stroke-width="2.08333" stroke-linecap="round" stroke-linejoin="round"/>
</svg>
