<svg width="25" height="25" viewBox="0 0 25 25" fill="none" xmlns="http://www.w3.org/2000/svg">
<path d="M18.3811 4.80721e-05C14.7352 0.0146965 11.8056 3.3936 11.8056 7.49515V10.9375H2.08333C0.93316 10.9375 0 11.9873 0 13.2813V22.6563C0 23.9502 0.93316 25 2.08333 25H17.3611C18.5113 25 19.4444 23.9502 19.4444 22.6563V13.2813C19.4444 11.9873 18.5113 10.9375 17.3611 10.9375H15.2778V7.46585C15.2778 5.53226 16.6536 3.92582 18.3724 3.90629C20.1085 3.88676 21.5278 5.47367 21.5278 7.42191V11.3282C21.5278 11.9776 21.9922 12.5 22.5694 12.5H23.9583C24.5356 12.5 25 11.9776 25 11.3282V7.42191C25 3.32035 22.0269 -0.0146003 18.3811 4.80721e-05Z" fill="#EC2F2F"/>
</svg>
