<svg width="25" height="25" viewBox="0 0 25 25" fill="none" xmlns="http://www.w3.org/2000/svg">
<path d="M0 4.99232V20.0077C0 21.3902 0.5231 22.619 1.36006 23.5791C2.19702 24.5008 3.2781 25 4.53354 25H11.3687V21.8894H4.53354C3.59196 21.8894 2.85962 21.0445 2.85962 20.0077V4.99232C2.85962 3.95545 3.59196 3.149 4.53354 3.149H11.3687V0H4.53354C3.2781 0 2.19702 0.537634 1.36006 1.45929C0.5231 2.41935 0 3.60983 0 4.99232ZM7.49777 9.52381V15.5146C7.49777 16.2058 8.05575 16.7819 8.68347 16.7819H14.9955V21.5054C14.9955 21.9278 15.2048 22.2734 15.5535 22.4654C15.693 22.5038 15.8325 22.5038 15.9023 22.5038C16.1464 22.5038 16.3556 22.427 16.53 22.235L24.7252 13.2104C25.1088 12.8648 25.0739 12.1736 24.7252 11.7896L16.53 2.80338C16.0417 2.22734 14.9955 2.57296 14.9955 3.49462V8.25653H8.68347C8.05575 8.25653 7.49777 8.83257 7.49777 9.52381Z" fill="#6B46C1"/>
</svg>
