<svg width="20" height="26" viewBox="0 0 20 26" fill="none" xmlns="http://www.w3.org/2000/svg">
<path d="M15.7143 25.4191H4.28571C1.85714 25.4191 0 23.6165 0 21.2591V4.61901C0 2.26166 1.85714 0.458984 4.28571 0.458984H15.7143C18.1429 0.458984 20 2.26166 20 4.61901V21.2591C20 23.6165 18.1429 25.4191 15.7143 25.4191ZM4.28571 3.23233C3.42857 3.23233 2.85714 3.787 2.85714 4.61901V21.2591C2.85714 22.0911 3.42857 22.6458 4.28571 22.6458H15.7143C16.5714 22.6458 17.1429 22.0911 17.1429 21.2591V4.61901C17.1429 3.787 16.5714 3.23233 15.7143 3.23233H4.28571Z" fill="#11AC6A"/>
<path d="M5.71428 12.939C6.50326 12.939 7.14285 12.3182 7.14285 11.5523C7.14285 10.7865 6.50326 10.1656 5.71428 10.1656C4.9253 10.1656 4.28571 10.7865 4.28571 11.5523C4.28571 12.3182 4.9253 12.939 5.71428 12.939Z" fill="#11AC6A"/>
<path d="M10 12.939C10.789 12.939 11.4286 12.3182 11.4286 11.5523C11.4286 10.7865 10.789 10.1656 10 10.1656C9.21103 10.1656 8.57144 10.7865 8.57144 11.5523C8.57144 12.3182 9.21103 12.939 10 12.939Z" fill="#11AC6A"/>
<path d="M14.2857 12.939C15.0747 12.939 15.7143 12.3182 15.7143 11.5523C15.7143 10.7865 15.0747 10.1656 14.2857 10.1656C13.4967 10.1656 12.8571 10.7865 12.8571 11.5523C12.8571 12.3182 13.4967 12.939 14.2857 12.939Z" fill="#11AC6A"/>
<path d="M5.71428 17.0991C6.50326 17.0991 7.14285 16.4783 7.14285 15.7124C7.14285 14.9466 6.50326 14.3257 5.71428 14.3257C4.9253 14.3257 4.28571 14.9466 4.28571 15.7124C4.28571 16.4783 4.9253 17.0991 5.71428 17.0991Z" fill="#11AC6A"/>
<path d="M10 17.0991C10.789 17.0991 11.4286 16.4783 11.4286 15.7124C11.4286 14.9466 10.789 14.3257 10 14.3257C9.21103 14.3257 8.57144 14.9466 8.57144 15.7124C8.57144 16.4783 9.21103 17.0991 10 17.0991Z" fill="#11AC6A"/>
<path d="M14.2857 17.0991C15.0747 17.0991 15.7143 16.4783 15.7143 15.7124C15.7143 14.9466 15.0747 14.3257 14.2857 14.3257C13.4967 14.3257 12.8571 14.9466 12.8571 15.7124C12.8571 16.4783 13.4967 17.0991 14.2857 17.0991Z" fill="#11AC6A"/>
<path d="M5.71428 21.2591C6.50326 21.2591 7.14285 20.6383 7.14285 19.8725C7.14285 19.1067 6.50326 18.4858 5.71428 18.4858C4.9253 18.4858 4.28571 19.1067 4.28571 19.8725C4.28571 20.6383 4.9253 21.2591 5.71428 21.2591Z" fill="#11AC6A"/>
<path d="M10 21.2591C10.789 21.2591 11.4286 20.6383 11.4286 19.8725C11.4286 19.1067 10.789 18.4858 10 18.4858C9.21103 18.4858 8.57144 19.1067 8.57144 19.8725C8.57144 20.6383 9.21103 21.2591 10 21.2591Z" fill="#11AC6A"/>
<path d="M14.2857 21.2591C15.0747 21.2591 15.7143 20.6383 15.7143 19.8725C15.7143 19.1067 15.0747 18.4858 14.2857 18.4858C13.4967 18.4858 12.8571 19.1067 12.8571 19.8725C12.8571 20.6383 13.4967 21.2591 14.2857 21.2591Z" fill="#11AC6A"/>
<path d="M13.5924 6.00568C13.9753 6.00568 14.2857 6.31609 14.2857 6.69901C14.2857 7.08192 13.9753 7.39233 13.5924 7.39233H6.40761C6.02469 7.39233 5.71428 7.08192 5.71428 6.69901C5.71428 6.31609 6.02469 6.00568 6.40761 6.00568H13.5924ZM15.7143 5.61902C15.7143 5.06673 15.2666 4.61902 14.7143 4.61902H5.28571C4.73342 4.61902 4.28571 5.06673 4.28571 5.61902V7.77899C4.28571 8.33128 4.73342 8.77899 5.28571 8.77899H14.7143C15.2666 8.77899 15.7143 8.33128 15.7143 7.77899V5.61902Z" fill="#11AC6A"/>
</svg>
