<svg width="25" height="20" viewBox="0 0 25 20" fill="none" xmlns="http://www.w3.org/2000/svg">
<path d="M18.4375 2.12484e-08C19.1502 -8.75273e-05 19.8363 0.270369 20.3572 0.756711C20.8781 1.24305 21.195 1.90901 21.2438 2.62L21.25 2.8125V16.875C21.2497 17.0312 21.3079 17.1818 21.4131 17.2972C21.5184 17.4126 21.663 17.4845 21.8185 17.4986C21.9741 17.5127 22.1293 17.4681 22.2535 17.3735C22.3778 17.2789 22.4622 17.1412 22.49 16.9875L22.5 16.875V3.7675C23.1524 3.84045 23.7588 4.13933 24.214 4.61236C24.6692 5.08538 24.9446 5.70276 24.9925 6.3575L25 6.5625V15.9375C25.0001 16.9752 24.6031 17.9735 23.8904 18.7278C23.1778 19.482 22.2035 19.935 21.1675 19.9938L20.9375 20H4.0625C3.02483 20.0001 2.02646 19.6031 1.27221 18.8904C0.517958 18.1778 0.0649984 17.2035 0.00625016 16.1675L2.12484e-08 15.9375V2.8125C-8.75273e-05 2.09984 0.270369 1.41372 0.756712 0.892808C1.24305 0.371893 1.90901 0.0550276 2.62 0.00625016L2.8125 2.12484e-08H18.4375ZM9.06 8.75H4.685C4.43636 8.75 4.1979 8.84877 4.02209 9.02459C3.84627 9.2004 3.7475 9.43886 3.7475 9.6875V14.0625C3.7475 14.58 4.1675 15 4.685 15H9.06C9.30864 15 9.5471 14.9012 9.72291 14.7254C9.89873 14.5496 9.9975 14.3111 9.9975 14.0625V9.6875C9.9975 9.43886 9.89873 9.2004 9.72291 9.02459C9.5471 8.84877 9.30864 8.75 9.06 8.75ZM16.565 13.125H13.4425L13.315 13.1337C13.0797 13.1661 12.8654 13.2866 12.7155 13.4709C12.5656 13.6551 12.4913 13.8894 12.5075 14.1264C12.5237 14.3634 12.6292 14.5854 12.8028 14.7475C12.9763 14.9097 13.205 14.9999 13.4425 15H16.565L16.6925 14.9913C16.9278 14.9589 17.1421 14.8384 17.292 14.6541C17.4419 14.4699 17.5162 14.2356 17.5 13.9986C17.4838 13.7616 17.3783 13.5396 17.2047 13.3775C17.0312 13.2153 16.8025 13.1251 16.565 13.125ZM8.1225 10.625V13.125H5.6225V10.625H8.1225ZM16.5625 8.75L13.44 8.75625L13.3125 8.76375C13.0749 8.79382 12.8578 8.91368 12.7058 9.09874C12.5538 9.2838 12.4783 9.52002 12.495 9.75893C12.5116 9.99785 12.619 10.2213 12.7952 10.3835C12.9714 10.5458 13.203 10.6344 13.4425 10.6313L16.5662 10.625L16.6925 10.6163C16.9279 10.5839 17.1423 10.4633 17.2922 10.2789C17.4421 10.0945 17.5163 9.86005 17.5 9.62298C17.4836 9.3859 17.3779 9.16389 17.2041 9.00183C17.0303 8.83976 16.8014 8.74975 16.5638 8.75H16.5625ZM16.5638 4.38H4.685L4.5575 4.38875C4.32219 4.42113 4.10794 4.54162 3.95804 4.72588C3.80814 4.91014 3.73378 5.14442 3.74997 5.3814C3.76616 5.61838 3.8717 5.84037 4.04526 6.00253C4.21882 6.16469 4.44747 6.25493 4.685 6.255H16.565L16.6925 6.2475C16.9298 6.2174 17.1467 6.0977 17.2986 5.91293C17.4506 5.72815 17.5262 5.49227 17.5099 5.25359C17.4936 5.01492 17.3866 4.7915 17.211 4.62909C17.0353 4.46668 16.8042 4.37757 16.565 4.38H16.5638Z" fill="#9388FD"/>
</svg>
