<svg width="18" height="24" viewBox="0 0 18 24" fill="none" xmlns="http://www.w3.org/2000/svg">
<path d="M10.875 21.2599C10.875 20.8652 10.6914 20.5273 10.3242 20.2463C9.95703 19.9652 9.51562 19.8247 9 19.8247C8.48438 19.8247 8.04297 19.9652 7.67578 20.2463C7.30859 20.5273 7.125 20.8652 7.125 21.2599C7.125 21.6546 7.30859 21.9924 7.67578 22.2735C8.04297 22.5546 8.48438 22.6951 9 22.6951C9.51562 22.6951 9.95703 22.5546 10.3242 22.2735C10.6914 21.9924 10.875 21.6546 10.875 21.2599ZM15.75 18.3894V5.75955C15.75 5.60407 15.6758 5.46951 15.5273 5.35589C15.3789 5.24227 15.2031 5.18546 15 5.18546H3C2.79688 5.18546 2.62109 5.24227 2.47266 5.35589C2.32422 5.46951 2.25 5.60407 2.25 5.75955V18.3894C2.25 18.5449 2.32422 18.6795 2.47266 18.7931C2.62109 18.9067 2.79688 18.9635 3 18.9635H15C15.2031 18.9635 15.3789 18.9067 15.5273 18.7931C15.6758 18.6795 15.75 18.5449 15.75 18.3894ZM11.25 3.17616C11.25 2.9848 11.125 2.88912 10.875 2.88912H7.125C6.875 2.88912 6.75 2.9848 6.75 3.17616C6.75 3.36752 6.875 3.4632 7.125 3.4632H10.875C11.125 3.4632 11.25 3.36752 11.25 3.17616ZM18 2.88912V21.2599C18 21.8818 17.7031 22.42 17.1094 22.8745C16.5156 23.329 15.8125 23.5562 15 23.5562H3C2.1875 23.5562 1.48438 23.329 0.890625 22.8745C0.296875 22.42 0 21.8818 0 21.2599V2.88912C0 2.26719 0.296875 1.72899 0.890625 1.2745C1.48438 0.820016 2.1875 0.592773 3 0.592773H15C15.8125 0.592773 16.5156 0.820016 17.1094 1.2745C17.7031 1.72899 18 2.26719 18 2.88912Z" fill="#B54C8F"/>
</svg>
