<svg width="25" height="24" viewBox="0 0 25 24" fill="none" xmlns="http://www.w3.org/2000/svg">
<path d="M10.95 0.914142C11.3816 0.531979 11.9314 0.321899 12.5 0.321899C13.0686 0.321899 13.6184 0.531979 14.05 0.914142L21.5926 7.58824L24.5532 10.0342C24.6753 10.1351 24.777 10.2598 24.8524 10.4012C24.9278 10.5427 24.9755 10.6981 24.9927 10.8585C25.01 11.019 24.9964 11.1814 24.9529 11.3365C24.9094 11.4916 24.8367 11.6363 24.7389 11.7623C24.6412 11.8884 24.5204 11.9933 24.3834 12.0712C24.2465 12.1491 24.0959 12.1983 23.9405 12.2161C23.7851 12.2339 23.6278 12.2199 23.4776 12.175C23.3274 12.13 23.1873 12.0549 23.0652 11.9541L22.0235 11.0937V20.827C22.0235 21.479 21.7727 22.1043 21.3262 22.5653C20.8797 23.0263 20.2741 23.2853 19.6427 23.2853H5.35735C4.7259 23.2853 4.12031 23.0263 3.6738 22.5653C3.2273 22.1043 2.97646 21.479 2.97646 20.827V11.0925L1.93482 11.9528C1.68824 12.1566 1.37337 12.2508 1.05948 12.2149C0.745588 12.1789 0.458388 12.0157 0.26106 11.7611C0.0637316 11.5065 -0.0275604 11.1814 0.00726678 10.8573C0.042094 10.5332 0.200188 10.2367 0.446769 10.033L3.4074 7.58701L10.95 0.912913V0.914142ZM5.35735 9.10128V20.827H8.92867V15.9106C8.92867 15.2586 9.17952 14.6334 9.62602 14.1724C10.0725 13.7113 10.6781 13.4524 11.3096 13.4524H13.6904C14.3219 13.4524 14.9275 13.7113 15.374 14.1724C15.8205 14.6334 16.0713 15.2586 16.0713 15.9106V20.827H19.6427V9.10128L12.5 2.77994L5.35735 9.10128ZM13.6904 20.827V15.9106H11.3096V20.827H13.6904Z" fill="#EE8A52"/>
</svg>
