<svg width="17" height="26" viewBox="0 0 17 26" fill="none" xmlns="http://www.w3.org/2000/svg">
<path d="M16 16.3207C16 21.2935 13.1026 24.4239 8.5 24.4239C3.8974 24.4239 1 21.2935 1 16.3207C1 10.9844 6.37656 3.7804 8.02552 1.69664C8.0842 1.6226 8.15701 1.56317 8.23896 1.52242C8.32091 1.48167 8.41005 1.46057 8.50026 1.46057C8.59047 1.46057 8.67962 1.48167 8.76156 1.52242C8.84351 1.56317 8.91633 1.6226 8.975 1.69664C10.6234 3.7804 16 10.9844 16 16.3207Z" stroke="#66BFFF" stroke-width="1.5625" stroke-miterlimit="10"/>
<path d="M13.0833 16.7708C13.0833 17.8454 12.6883 18.8759 11.985 19.6358C11.2817 20.3956 10.3279 20.8224 9.33334 20.8224" stroke="#66BFFF" stroke-width="1.5625" stroke-linecap="round" stroke-linejoin="round"/>
</svg>
