<svg width="22" height="26" viewBox="0 0 22 26" fill="none" xmlns="http://www.w3.org/2000/svg">
<path d="M2.18333 12.1481V4.54119C2.18333 4.22596 2.29395 3.92364 2.49087 3.70074C2.68778 3.47784 2.95485 3.35261 3.23333 3.35261H8.48333V0.975464H12.6833V3.35261H17.9333C18.2118 3.35261 18.4789 3.47784 18.6758 3.70074C18.8727 3.92364 18.9833 4.22596 18.9833 4.54119V12.1481L20.1236 12.5355C20.382 12.6236 20.6006 12.8208 20.7339 13.0864C20.8673 13.352 20.9051 13.6655 20.8397 13.9618L19.2479 21.1741C18.3891 21.2239 17.5326 21.0338 16.754 20.6205C15.9755 20.2072 15.2987 19.5834 14.7833 18.8041C14.2948 19.5427 13.6607 20.1422 12.9316 20.5548C12.2025 20.9675 11.3985 21.182 10.5833 21.1812C9.76818 21.182 8.96411 20.9675 8.23501 20.5548C7.50592 20.1422 6.8719 19.5427 6.38333 18.8041C5.868 19.5834 5.1912 20.2072 4.41261 20.6205C3.63402 21.0338 2.77755 21.2239 1.91873 21.1741L0.326928 13.9618C0.26151 13.6655 0.299401 13.352 0.432738 13.0864C0.566075 12.8208 0.784622 12.6236 1.04303 12.5355L2.18333 12.1481ZM4.28333 11.4349L10.5833 9.29549L13.475 10.2773L15.3745 10.9226L16.8833 11.4349V5.72976H4.28333V11.4349ZM2.18333 23.5584C3.73341 23.5608 5.22946 22.9139 6.38333 21.7422C7.5372 22.9139 9.03325 23.5608 10.5833 23.5584C12.1334 23.5608 13.6295 22.9139 14.7833 21.7422C15.9372 22.9139 17.4332 23.5608 18.9833 23.5584H21.0833V25.9355H18.9833C17.5088 25.9383 16.0598 25.4995 14.7833 24.6638C13.5069 25.4995 12.0579 25.9383 10.5833 25.9355C9.10875 25.9383 7.65976 25.4995 6.38333 24.6638C5.10689 25.4995 3.65791 25.9383 2.18333 25.9355H0.0833282V23.5584H2.18333Z" fill="#EE8A52"/>
</svg>
