<svg width="23" height="23" viewBox="0 0 23 23" fill="none" xmlns="http://www.w3.org/2000/svg">
<path d="M20.125 23H5.75C4.95638 23 4.27881 22.7192 3.71729 22.1577C3.15576 21.5962 2.875 20.9186 2.875 20.125V8.625C2.08138 8.625 1.40381 8.34424 0.842285 7.78271C0.280762 7.22119 0 6.54362 0 5.75V2.875C0 2.08138 0.280762 1.40381 0.842285 0.842285C1.40381 0.280762 2.08138 0 2.875 0H20.125C20.9186 0 21.5962 0.280762 22.1577 0.842285C22.7192 1.40381 23 2.08138 23 2.875V20.125C23 20.9186 22.7192 21.5962 22.1577 22.1577C21.5962 22.7192 20.9186 23 20.125 23ZM19.8555 2.15625H13.207C13.0872 2.15625 13.0049 2.26481 12.96 2.48193C12.915 2.69906 12.9525 2.875 13.0723 3.00977L16.1045 6.98535C16.2243 7.12012 16.3665 7.1875 16.5312 7.1875C16.696 7.1875 16.8382 7.12012 16.958 6.98535L19.9902 3.00977C20.11 2.875 20.1475 2.69906 20.1025 2.48193C20.0576 2.26481 19.9753 2.15625 19.8555 2.15625ZM20.125 8.625H5.75V11.5H20.125V8.625ZM20.125 12.9375H5.75V15.8125H20.125V12.9375ZM20.125 17.25H5.75V19.4062C5.75 19.6009 5.82113 19.7694 5.96338 19.9116C6.10563 20.0539 6.27409 20.125 6.46875 20.125H19.4062C19.6009 20.125 19.7694 20.0539 19.9116 19.9116C20.0539 19.7694 20.125 19.6009 20.125 19.4062V17.25Z" fill="#29D5F8"/>
</svg>
