<svg width="23" height="24" viewBox="0 0 23 24" fill="none" xmlns="http://www.w3.org/2000/svg">
<path d="M20.125 23.0334H5.75C4.95638 23.0334 4.27881 22.7531 3.71729 22.1925C3.15576 21.6319 2.875 20.9554 2.875 20.163V8.68141C2.08138 8.68141 1.40381 8.4011 0.842285 7.84047C0.280762 7.27985 0 6.60336 0 5.811V2.9406C0 2.14825 0.280762 1.47176 0.842285 0.91113C1.40381 0.350504 2.08138 0.0701904 2.875 0.0701904H20.125C20.9186 0.0701904 21.5962 0.350504 22.1577 0.91113C22.7192 1.47176 23 2.14825 23 2.9406V20.163C23 20.9554 22.7192 21.6319 22.1577 22.1925C21.5962 22.7531 20.9186 23.0334 20.125 23.0334ZM19.8555 2.223H13.207C13.0872 2.223 13.0049 2.33138 12.96 2.54816C12.915 2.76493 12.9525 2.9406 13.0723 3.07515L16.1045 7.04438C16.2243 7.17893 16.3665 7.24621 16.5312 7.24621C16.696 7.24621 16.8382 7.17893 16.958 7.04438L19.9902 3.07515C20.11 2.9406 20.1475 2.76493 20.1025 2.54816C20.0576 2.33138 19.9753 2.223 19.8555 2.223ZM20.125 8.68141H5.75V11.5518H20.125V8.68141ZM20.125 12.987H5.75V15.8574H20.125V12.987ZM20.125 17.2926H5.75V19.4454C5.75 19.6398 5.82113 19.808 5.96338 19.95C6.10563 20.092 6.27409 20.163 6.46875 20.163H19.4062C19.6009 20.163 19.7694 20.092 19.9116 19.95C20.0539 19.808 20.125 19.6398 20.125 19.4454V17.2926Z" fill="#CBD0DF"/>
</svg>
