<svg width="27" height="23" viewBox="0 0 27 23" fill="none" xmlns="http://www.w3.org/2000/svg">
<path d="M10.9444 21.5577H16.0556M22.4444 21.5577V3.80834C22.4444 3.21991 22.1752 2.65558 21.6959 2.2395C21.2167 1.82341 20.5667 1.58966 19.8889 1.58966H7.11111C6.43334 1.58966 5.78332 1.82341 5.30406 2.2395C4.8248 2.65558 4.55556 3.21991 4.55556 3.80834V21.5577H22.4444ZM22.4444 21.5577H25H22.4444ZM22.4444 21.5577H16.0556H22.4444ZM4.55556 21.5577H2H4.55556ZM4.55556 21.5577H10.9444H4.55556ZM9.66667 6.02701H10.9444H9.66667ZM9.66667 10.4644H10.9444H9.66667ZM16.0556 6.02701H17.3333H16.0556ZM16.0556 10.4644H17.3333H16.0556ZM10.9444 21.5577V16.0111C10.9444 15.7168 11.0791 15.4347 11.3187 15.2266C11.5583 15.0186 11.8833 14.9017 12.2222 14.9017H14.7778C15.1167 14.9017 15.4417 15.0186 15.6813 15.2266C15.9209 15.4347 16.0556 15.7168 16.0556 16.0111V21.5577H10.9444Z" stroke="#6B46C1" stroke-width="2.08333" stroke-linecap="round" stroke-linejoin="round"/>
</svg>
