<svg width="25" height="24" viewBox="0 0 25 24" fill="none" xmlns="http://www.w3.org/2000/svg">
<path d="M5.96593 14.5128C6.34265 14.5128 6.70395 14.3769 6.97034 14.135C7.23672 13.893 7.38638 13.5649 7.38638 13.2228C7.38638 12.8806 7.23672 12.5525 6.97034 12.3106C6.70395 12.0687 6.34265 11.9327 5.96593 11.9327C5.5892 11.9327 5.2279 12.0687 4.96151 12.3106C4.69513 12.5525 4.54547 12.8806 4.54547 13.2228C4.54547 13.5649 4.69513 13.893 4.96151 14.135C5.2279 14.3769 5.5892 14.5128 5.96593 14.5128Z" fill="#9388FD"/>
<path d="M20.4546 13.2228C20.4546 13.5649 20.3049 13.893 20.0385 14.135C19.7721 14.3769 19.4108 14.5128 19.0341 14.5128C18.6574 14.5128 18.2961 14.3769 18.0297 14.135C17.7633 13.893 17.6136 13.5649 17.6136 13.2228C17.6136 12.8806 17.7633 12.5525 18.0297 12.3106C18.2961 12.0687 18.6574 11.9327 19.0341 11.9327C19.4108 11.9327 19.7721 12.0687 20.0385 12.3106C20.3049 12.5525 20.4546 12.8806 20.4546 13.2228Z" fill="#9388FD"/>
<path d="M9.94318 14.5128C9.71715 14.5128 9.50037 14.5944 9.34054 14.7395C9.18071 14.8847 9.09091 15.0815 9.09091 15.2868C9.09091 15.4921 9.18071 15.6889 9.34054 15.8341C9.50037 15.9792 9.71715 16.0608 9.94318 16.0608H15.0568C15.2829 16.0608 15.4996 15.9792 15.6595 15.8341C15.8193 15.6889 15.9091 15.4921 15.9091 15.2868C15.9091 15.0815 15.8193 14.8847 15.6595 14.7395C15.4996 14.5944 15.2829 14.5128 15.0568 14.5128H9.94318Z" fill="#9388FD"/>
<path d="M2.53068 7.28832L2.2125 8.4432C1.57215 8.62092 1.01155 8.98069 0.613244 9.46952C0.214938 9.95836 -2.66411e-05 10.5504 2.47644e-09 11.1585V20.4471C2.47644e-09 21.1998 0.32924 21.9217 0.915291 22.454C1.50134 22.9863 2.2962 23.2853 3.125 23.2853H4.26136C5.09017 23.2853 5.88502 22.9863 6.47107 22.454C7.05712 21.9217 7.38636 21.1998 7.38636 20.4471V19.415H17.6136V20.4471C17.6136 21.1998 17.9429 21.9217 18.5289 22.454C19.115 22.9863 19.9098 23.2853 20.7386 23.2853H21.875C22.7038 23.2853 23.4987 22.9863 24.0847 22.454C24.6708 21.9217 25 21.1998 25 20.4471V11.1585C25 9.87879 24.0682 8.79822 22.7875 8.44423L22.4693 7.28832H23.5795C23.8056 7.28832 24.0224 7.20677 24.1822 7.0616C24.342 6.91644 24.4318 6.71956 24.4318 6.51427C24.4318 6.30898 24.342 6.1121 24.1822 5.96694C24.0224 5.82178 23.8056 5.74022 23.5795 5.74022H22.0432L21.3591 3.25296C21.1285 2.41571 20.5964 1.67248 19.8473 1.1414C19.0983 0.610329 18.1753 0.321879 17.225 0.321899H7.775C6.82473 0.321879 5.90172 0.610329 5.15267 1.1414C4.40362 1.67248 3.87151 2.41571 3.64091 3.25296L2.95682 5.74022H1.42045C1.19442 5.74022 0.977639 5.82178 0.817807 5.96694C0.657974 6.1121 0.568182 6.30898 0.568182 6.51427C0.568182 6.71956 0.657974 6.91644 0.817807 7.0616C0.977639 7.20677 1.19442 7.28832 1.42045 7.28832H2.53068ZM7.775 1.86999H17.225C17.7952 1.86993 18.3491 2.04298 18.7985 2.36163C19.248 2.68028 19.5673 3.12624 19.7057 3.62863L20.9966 8.32038H4.00341L5.29545 3.62863C5.43378 3.12641 5.75291 2.68058 6.20215 2.36195C6.6514 2.04332 7.205 1.87016 7.775 1.86999ZM19.3182 20.4471V19.415H23.2955V20.4471C23.2955 21.1592 22.6591 21.7372 21.875 21.7372H20.7386C19.9545 21.7372 19.3182 21.1592 19.3182 20.4471ZM5.68182 19.415V20.4471C5.68182 21.1592 5.04545 21.7372 4.26136 21.7372H3.125C2.34091 21.7372 1.70455 21.1592 1.70455 20.4471V19.415H5.68182ZM3.125 9.86847H21.875C22.6591 9.86847 23.2955 10.4464 23.2955 11.1585V17.867H1.70455V11.1585C1.70455 10.4464 2.34091 9.86847 3.125 9.86847Z" fill="#9388FD"/>
</svg>
