<svg width="28" height="24" viewBox="0 0 28 24" fill="none" xmlns="http://www.w3.org/2000/svg">
<path d="M7.00001 3.89333C7.00001 2.87829 7.36876 1.90482 8.02513 1.18707C8.68151 0.469326 9.57175 0.0661011 10.5 0.0661011H17.5C18.4283 0.0661011 19.3185 0.469326 19.9749 1.18707C20.6312 1.90482 21 2.87829 21 3.89333V19.2022C21 20.2173 20.6312 21.1908 19.9749 21.9085C19.3185 22.6263 18.4283 23.0295 17.5 23.0295H10.5C9.57175 23.0295 8.68151 22.6263 8.02513 21.9085C7.36876 21.1908 7.00001 20.2173 7.00001 19.2022V3.89333ZM15.75 17.2886C15.75 16.7811 15.5656 16.2944 15.2374 15.9355C14.9092 15.5766 14.4641 15.375 14 15.375C13.5359 15.375 13.0908 15.5766 12.7626 15.9355C12.4344 16.2944 12.25 16.7811 12.25 17.2886C12.25 17.7962 12.4344 18.2829 12.7626 18.6418C13.0908 19.0006 13.5359 19.2022 14 19.2022C14.4641 19.2022 14.9092 19.0006 15.2374 18.6418C15.5656 18.2829 15.75 17.7962 15.75 17.2886ZM3.16226 5.29792C3.27087 5.0736 3.29353 4.81129 3.22527 4.56869C3.15701 4.32609 3.00341 4.12308 2.79826 4.00432C2.59312 3.88556 2.35323 3.86078 2.13138 3.93542C1.90952 4.01007 1.72387 4.17803 1.61526 4.40235C0.551239 6.60416 -0.00333868 9.05747 1.51215e-05 11.5478C1.51215e-05 14.1254 0.584514 16.5576 1.61526 18.6932C1.66904 18.8043 1.7423 18.9027 1.83085 18.9828C1.91941 19.0629 2.02152 19.1232 2.13138 19.1602C2.24123 19.1971 2.35666 19.2101 2.47109 19.1982C2.58551 19.1864 2.69668 19.1501 2.79826 19.0913C2.89984 19.0325 2.98983 18.9524 3.0631 18.8555C3.13636 18.7587 3.19147 18.647 3.22527 18.5269C3.25907 18.4068 3.2709 18.2805 3.26009 18.1554C3.24928 18.0303 3.21604 17.9087 3.16226 17.7977C2.23169 15.8718 1.74681 13.726 1.75001 11.5478C1.75001 9.28973 2.26101 7.16179 3.16226 5.29792ZM26.3847 4.40235C26.2761 4.17803 26.0905 4.01007 25.8686 3.93542C25.6468 3.86078 25.4069 3.88556 25.2017 4.00432C24.9966 4.12308 24.843 4.32609 24.7747 4.56869C24.7065 4.81129 24.7291 5.0736 24.8377 5.29792C25.739 7.16179 26.25 9.28781 26.25 11.5478C26.25 13.8059 25.739 15.9338 24.8377 17.7977C24.7291 18.022 24.7065 18.2843 24.7747 18.5269C24.843 18.7695 24.9966 18.9725 25.2017 19.0913C25.4069 19.21 25.6468 19.2348 25.8686 19.1602C26.0905 19.0855 26.2761 18.9176 26.3847 18.6932C27.4488 16.4914 28.0033 14.0381 28 11.5478C28.0033 9.05747 27.4488 6.60416 26.3847 4.40235ZM5.84501 8.06884C5.89384 7.95057 5.92017 7.82268 5.92238 7.69295C5.92459 7.56321 5.90265 7.43433 5.85789 7.31416C5.81312 7.19398 5.74647 7.08502 5.66199 6.9939C5.5775 6.90278 5.47695 6.8314 5.36645 6.7841C5.25595 6.73681 5.1378 6.71459 5.01919 6.71879C4.90059 6.72299 4.78401 6.75353 4.67654 6.80855C4.56906 6.86357 4.47295 6.94192 4.39404 7.03883C4.31513 7.13574 4.25507 7.24919 4.21751 7.37228C3.74233 8.70302 3.49898 10.1192 3.50001 11.5478C3.50001 13.0194 3.75376 14.4278 4.21751 15.7233C4.25507 15.8464 4.31513 15.9598 4.39404 16.0568C4.47295 16.1537 4.56906 16.232 4.67654 16.287C4.78401 16.3421 4.90059 16.3726 5.01919 16.3768C5.1378 16.381 5.25595 16.3588 5.36645 16.3115C5.47695 16.2642 5.5775 16.1928 5.66199 16.1017C5.74647 16.0106 5.81312 15.9016 5.85789 15.7814C5.90265 15.6612 5.92459 15.5324 5.92238 15.4026C5.92017 15.2729 5.89384 15.145 5.84501 15.0267C5.45 13.9178 5.24819 12.7379 5.25001 11.5478C5.25001 10.3192 5.46001 9.1462 5.84501 8.06884ZM23.7825 7.37228C23.6902 7.14871 23.5229 6.97245 23.3151 6.87991C23.1073 6.78737 22.875 6.78563 22.6661 6.87504C22.4572 6.96444 22.2877 7.13818 22.1926 7.36034C22.0974 7.58251 22.084 7.83614 22.155 8.06884C22.54 9.1462 22.75 10.3192 22.75 11.5478C22.75 12.7763 22.54 13.9494 22.155 15.0267C22.084 15.2594 22.0974 15.5131 22.1926 15.7352C22.2877 15.9574 22.4572 16.1311 22.6661 16.2205C22.875 16.31 23.1073 16.3082 23.3151 16.2157C23.5229 16.1231 23.6902 15.9469 23.7825 15.7233C24.248 14.4278 24.5 13.0194 24.5 11.5478C24.5 10.0762 24.2462 8.6678 23.7825 7.37228Z" fill="#EC2F2F"/>
</svg>
