<svg width="90" height="90" viewBox="0 0 90 90" fill="none" xmlns="http://www.w3.org/2000/svg">
<mask id="mask0" mask-type="alpha" maskUnits="userSpaceOnUse" x="0" y="0" width="90" height="90">
<rect width="90" height="90" fill="#C4C4C4"/>
</mask>
<g mask="url(#mask0)">
<path d="M46.9898 86.0008C69.6228 86.0008 87.9704 67.6531 87.9704 45.0202C87.9704 22.3872 69.6228 4.03955 46.9898 4.03955C24.3568 4.03955 6.00919 22.3872 6.00919 45.0202C6.00919 67.6531 24.3568 86.0008 46.9898 86.0008Z" fill="#EDF0F2"/>
<path d="M73.0069 76.6438C66.7589 81.8024 59.1011 84.9745 51.0267 85.7435C40.2288 86.8008 29.431 83.5326 21.0042 76.6438C12.6094 69.7549 7.29055 59.8222 6.20116 48.9923C5.40013 40.9179 7.00218 32.8115 10.8151 25.6663C14.628 18.5212 20.4915 12.6576 27.6367 8.84474C34.7818 5.03185 42.8883 3.39775 50.9626 4.19878C59.037 4.99981 66.6628 8.13984 72.9428 13.2985L64.6762 23.3914C60.4148 19.8989 55.192 17.7201 49.681 17.2075C44.1699 16.6628 38.6588 17.7842 33.7886 20.3795C28.9183 22.9749 24.9452 26.98 22.3178 31.8503C19.7225 36.7205 18.6331 42.2636 19.1778 47.7427C19.9148 55.1121 23.5354 61.9049 29.2708 66.5829C35.0061 71.2929 42.3756 73.5038 49.7451 72.7668C55.2561 72.2221 60.4468 70.0433 64.7083 66.5508L73.0069 76.6438Z" fill="url(#paint0_linear)"/>
<path d="M47.1177 78.5663C65.6054 78.5663 80.5686 63.571 80.5686 45.1153C80.5686 26.6276 65.6054 11.6323 47.1177 11.6323C28.63 11.6323 13.6347 26.6276 13.6347 45.1153C13.6347 63.6031 28.63 78.5663 47.1177 78.5663Z" fill="white"/>
<path d="M52.6928 47.7745C52.6928 44.6345 50.7704 43.5771 47.0216 43.0965C44.266 42.712 43.7213 42.0712 43.7213 40.7895C43.7213 39.5079 44.6505 38.7389 46.4448 38.7389C48.0789 38.7389 49.0081 39.2836 49.3926 40.5973C49.4246 40.7255 49.5208 40.8536 49.6489 40.9497C49.7771 41.0459 49.9053 41.0779 50.0655 41.0779H51.5073C51.6034 41.0779 51.6996 41.0459 51.7636 41.0138C51.8598 40.9818 51.9238 40.9177 51.9879 40.8536C52.052 40.7895 52.0841 40.6934 52.1161 40.6293C52.1481 40.5332 52.1481 40.4371 52.1161 40.341C51.6675 38.2903 50.2577 37.0728 48.0789 36.6883V34.5415C48.0789 34.3493 48.0148 34.1891 47.8867 34.0609C47.7585 33.9327 47.5983 33.8687 47.406 33.8687H46.0283C45.836 33.8687 45.6758 33.9327 45.5477 34.0609C45.4195 34.1891 45.3554 34.3493 45.3554 34.5415V36.6242C42.6319 37.0087 40.9017 38.7709 40.9017 41.0459C40.9017 43.9937 42.728 45.1151 46.5089 45.6278C49.1042 46.0443 49.8412 46.589 49.8412 48.0308C49.8412 49.4727 48.5916 50.4339 46.8293 50.4339C44.4583 50.4339 43.6572 49.4086 43.3689 48.0949C43.3368 47.9347 43.2407 47.8065 43.1446 47.7104C43.0164 47.6143 42.8562 47.5502 42.728 47.5502H41.158C41.0619 47.5502 40.9658 47.5823 40.9017 47.6143C40.8056 47.6463 40.7415 47.7104 40.6774 47.7745C40.6133 47.8386 40.5813 47.9347 40.5492 47.9988C40.5172 48.0949 40.5172 48.191 40.5492 48.2551C40.9337 50.498 42.4076 52.1321 45.3875 52.5166V54.6313C45.3875 54.8236 45.4515 54.9838 45.5797 55.1119C45.7079 55.2401 45.8681 55.3042 46.0603 55.3042H47.4381C47.6303 55.3042 47.7905 55.2401 47.9187 55.1119C48.0469 54.9838 48.111 54.8236 48.111 54.6313V52.5166C50.8985 52.068 52.6928 50.1776 52.6928 47.7745Z" fill="#283947"/>
<path d="M42.3435 57.387C39.7482 56.4578 37.5053 54.7276 35.9033 52.4847C34.3012 50.2418 33.4682 47.5504 33.4682 44.8269C33.4682 42.1034 34.3333 39.4119 35.9033 37.1691C37.5053 34.9262 39.7482 33.196 42.3435 32.2668C42.5038 32.2027 42.664 32.0745 42.7601 31.9143C42.8562 31.7541 42.9203 31.5939 42.9203 31.4016V30.152C42.9203 30.0559 42.9203 29.9278 42.8562 29.8316C42.8242 29.7355 42.728 29.6394 42.6319 29.5753C42.5358 29.5112 42.4397 29.4792 42.3115 29.4471C42.1833 29.4151 42.0872 29.4471 41.9911 29.5112C38.7229 30.5365 35.8712 32.5872 33.8206 35.3427C31.802 38.0982 30.7126 41.3985 30.7126 44.8269C30.7126 48.2232 31.802 51.5555 33.8206 54.3111C35.8392 57.0666 38.6909 59.0852 41.9911 60.1425C42.0872 60.1746 42.2154 60.2066 42.3115 60.2066C42.4076 60.2066 42.5358 60.1425 42.6319 60.0785C42.728 60.0144 42.7921 59.9183 42.8562 59.8221C42.8882 59.726 42.9203 59.5978 42.9203 59.5017V58.2521C42.9203 58.0599 42.8562 57.8997 42.7601 57.7395C42.664 57.5793 42.5358 57.4511 42.3435 57.387Z" fill="#657786"/>
<path d="M51.6355 29.5431C51.5393 29.511 51.4112 29.479 51.3151 29.479C51.2189 29.479 51.0908 29.5431 50.9946 29.6072C50.8985 29.6713 50.8344 29.7674 50.7704 29.8635C50.7383 29.9596 50.7063 30.0878 50.7063 30.1839V31.4335C50.7063 31.6258 50.7704 31.786 50.8665 31.9462C50.9626 32.1064 51.1228 32.2025 51.283 32.2986C53.8783 33.2278 56.1212 34.958 57.7233 37.2009C59.3253 39.4438 60.1584 42.1353 60.1584 44.8587C60.1584 47.5822 59.2933 50.2737 57.7233 52.5166C56.1212 54.7595 53.8783 56.4897 51.283 57.4189C51.1228 57.483 50.9626 57.6111 50.8665 57.7393C50.7704 57.8995 50.7063 58.0597 50.7063 58.2519V59.5015C50.7063 59.5977 50.7063 59.7258 50.7704 59.822C50.8024 59.9181 50.8985 60.0142 50.9946 60.0783C51.0908 60.1424 51.1869 60.1744 51.3151 60.2065C51.4112 60.2065 51.5393 60.2065 51.6355 60.1424C54.9037 59.1171 57.7553 57.0664 59.806 54.3109C61.8246 51.5553 62.914 48.2551 62.914 44.8267C62.914 41.4303 61.8246 38.0981 59.806 35.3425C57.7553 32.619 54.9037 30.5684 51.6355 29.5431Z" fill="#657786"/>
</g>
<defs>
<linearGradient id="paint0_linear" x1="35.4528" y1="8.53891" x2="48.2994" y2="79.7641" gradientUnits="userSpaceOnUse">
<stop stop-color="#27D3A2"/>
<stop offset="1" stop-color="#9388FD"/>
</linearGradient>
</defs>
</svg>
