<svg width="26" height="26" viewBox="0 0 26 26" fill="none" xmlns="http://www.w3.org/2000/svg">
<path d="M13.4583 16.5834C15.1842 16.5834 16.5833 15.1843 16.5833 13.4584C16.5833 11.7325 15.1842 10.3334 13.4583 10.3334C11.7325 10.3334 10.3333 11.7325 10.3333 13.4584C10.3333 15.1843 11.7325 16.5834 13.4583 16.5834Z" stroke="#8C8C8D" stroke-width="2.08333" stroke-linecap="round" stroke-linejoin="round"/>
<path d="M21.1667 16.5833C21.028 16.8975 20.9866 17.246 21.0479 17.5839C21.1092 17.9219 21.2703 18.2337 21.5104 18.4792L21.5729 18.5417C21.7666 18.7352 21.9203 18.9649 22.0251 19.2178C22.13 19.4707 22.1839 19.7418 22.1839 20.0156C22.1839 20.2894 22.13 20.5605 22.0251 20.8134C21.9203 21.0663 21.7666 21.2961 21.5729 21.4896C21.3794 21.6833 21.1497 21.8369 20.8967 21.9418C20.6438 22.0466 20.3727 22.1006 20.099 22.1006C19.8252 22.1006 19.5541 22.0466 19.3012 21.9418C19.0483 21.8369 18.8185 21.6833 18.625 21.4896L18.5625 21.4271C18.317 21.1869 18.0052 21.0258 17.6673 20.9646C17.3294 20.9033 16.9808 20.9447 16.6667 21.0833C16.3586 21.2154 16.0958 21.4346 15.9107 21.7141C15.7257 21.9936 15.6263 22.3211 15.625 22.6562V22.8333C15.625 23.3859 15.4055 23.9158 15.0148 24.3065C14.6241 24.6972 14.0942 24.9167 13.5417 24.9167C12.9891 24.9167 12.4592 24.6972 12.0685 24.3065C11.6778 23.9158 11.4583 23.3859 11.4583 22.8333V22.7396C11.4503 22.3948 11.3387 22.0604 11.138 21.7799C10.9374 21.4994 10.657 21.2857 10.3333 21.1667C10.0191 21.028 9.67063 20.9866 9.33272 21.0479C8.99481 21.1092 8.683 21.2703 8.4375 21.5104L8.375 21.5729C8.18151 21.7666 7.95175 21.9203 7.69883 22.0251C7.44592 22.13 7.17482 22.1839 6.90104 22.1839C6.62726 22.1839 6.35616 22.13 6.10325 22.0251C5.85034 21.9203 5.62057 21.7666 5.42708 21.5729C5.23338 21.3794 5.07972 21.1497 4.97488 20.8967C4.87003 20.6438 4.81607 20.3727 4.81607 20.099C4.81607 19.8252 4.87003 19.5541 4.97488 19.3012C5.07972 19.0483 5.23338 18.8185 5.42708 18.625L5.48958 18.5625C5.72973 18.317 5.89082 18.0052 5.95209 17.6673C6.01336 17.3294 5.97199 16.9808 5.83333 16.6667C5.70129 16.3586 5.48204 16.0958 5.20257 15.9107C4.9231 15.7257 4.59561 15.6263 4.26042 15.625H4.08333C3.5308 15.625 3.00089 15.4055 2.61019 15.0148C2.21949 14.6241 2 14.0942 2 13.5417C2 12.9891 2.21949 12.4592 2.61019 12.0685C3.00089 11.6778 3.5308 11.4583 4.08333 11.4583H4.17708C4.52187 11.4503 4.85625 11.3387 5.13677 11.138C5.41728 10.9374 5.63095 10.657 5.75 10.3333C5.88866 10.0191 5.93002 9.67063 5.86875 9.33272C5.80748 8.99481 5.64639 8.683 5.40625 8.4375L5.34375 8.375C5.15005 8.18151 4.99638 7.95175 4.89154 7.69883C4.7867 7.44592 4.73274 7.17482 4.73274 6.90104C4.73274 6.62726 4.7867 6.35616 4.89154 6.10325C4.99638 5.85034 5.15005 5.62057 5.34375 5.42708C5.53724 5.23338 5.767 5.07972 6.01992 4.97488C6.27283 4.87003 6.54393 4.81607 6.81771 4.81607C7.09149 4.81607 7.36259 4.87003 7.6155 4.97488C7.86841 5.07972 8.09818 5.23338 8.29167 5.42708L8.35417 5.48958C8.59967 5.72973 8.91147 5.89082 9.24939 5.95209C9.5873 6.01336 9.93582 5.97199 10.25 5.83333H10.3333C10.6414 5.70129 10.9042 5.48204 11.0893 5.20257C11.2743 4.9231 11.3737 4.59561 11.375 4.26042V4.08333C11.375 3.5308 11.5945 3.00089 11.9852 2.61019C12.3759 2.21949 12.9058 2 13.4583 2C14.0109 2 14.5408 2.21949 14.9315 2.61019C15.3222 3.00089 15.5417 3.5308 15.5417 4.08333V4.17708C15.543 4.51228 15.6423 4.83977 15.8274 5.11923C16.0125 5.3987 16.2752 5.61796 16.5833 5.75C16.8975 5.88866 17.246 5.93002 17.5839 5.86875C17.9219 5.80748 18.2337 5.64639 18.4792 5.40625L18.5417 5.34375C18.7352 5.15005 18.9649 4.99638 19.2178 4.89154C19.4707 4.7867 19.7418 4.73274 20.0156 4.73274C20.2894 4.73274 20.5605 4.7867 20.8134 4.89154C21.0663 4.99638 21.2961 5.15005 21.4896 5.34375C21.6833 5.53724 21.8369 5.767 21.9418 6.01992C22.0466 6.27283 22.1006 6.54393 22.1006 6.81771C22.1006 7.09149 22.0466 7.36259 21.9418 7.6155C21.8369 7.86841 21.6833 8.09818 21.4896 8.29167L21.4271 8.35417C21.1869 8.59967 21.0258 8.91147 20.9646 9.24939C20.9033 9.5873 20.9447 9.93582 21.0833 10.25V10.3333C21.2154 10.6414 21.4346 10.9042 21.7141 11.0893C21.9936 11.2743 22.3211 11.3737 22.6562 11.375H22.8333C23.3859 11.375 23.9158 11.5945 24.3065 11.9852C24.6972 12.3759 24.9167 12.9058 24.9167 13.4583C24.9167 14.0109 24.6972 14.5408 24.3065 14.9315C23.9158 15.3222 23.3859 15.5417 22.8333 15.5417H22.7396C22.4044 15.543 22.0769 15.6423 21.7974 15.8274C21.518 16.0125 21.2987 16.2752 21.1667 16.5833V16.5833Z" stroke="#8C8C8D" stroke-width="2.08333" stroke-linecap="round" stroke-linejoin="round"/>
</svg>
