<svg width="25" height="25" viewBox="0 0 25 25" fill="none" xmlns="http://www.w3.org/2000/svg">
<path d="M24.3785 8.63026C25.2479 11.3016 25.1924 14.1879 24.221 16.8238C23.2495 19.4597 21.4187 21.6914 19.0239 23.1589C16.6291 24.6264 13.8099 25.2442 11.0211 24.9126C8.23227 24.581 5.63643 23.3193 3.6523 21.331C1.66817 19.3428 0.411439 16.744 0.0848165 13.9537C-0.241806 11.1635 0.380728 8.34454 1.852 5.95158C3.32327 3.55862 5.5575 1.73119 8.19428 0.764063C10.8311 -0.203065 13.7167 -0.2535 16.3856 0.620894L14.7486 2.25683C14.658 2.34746 14.5768 2.44433 14.5018 2.54746C12.3651 2.11605 10.1463 2.38397 8.17363 3.31159C6.20093 4.23921 4.57904 5.77728 3.54785 7.69832C2.51665 9.61936 2.1309 11.8214 2.44764 13.9787C2.76437 16.136 3.76679 18.1341 5.30662 19.6774C6.84646 21.2208 8.84195 22.2274 10.998 22.5485C13.154 22.8695 15.3561 22.488 17.2786 21.4602C19.2011 20.4325 20.7418 18.8132 21.6731 16.8417C22.6043 14.8702 22.8765 12.6513 22.4494 10.5131C22.5563 10.4372 22.6566 10.3526 22.7493 10.2599L24.3769 8.63183L24.3785 8.63026ZM20.1532 10.9443C20.4886 12.5899 20.2849 14.2997 19.5724 15.8204C18.8599 17.341 17.6765 18.5916 16.1976 19.3865C14.7188 20.1815 13.0232 20.4787 11.3622 20.2339C9.70124 19.9891 8.16334 19.2155 6.9765 18.0277C5.78965 16.8399 5.01704 15.3011 4.7732 13.6395C4.52936 11.9779 4.82727 10.282 5.62278 8.80305C6.41828 7.32415 7.66902 6.14102 9.18958 5.42908C10.7101 4.71714 12.4196 4.51428 14.0645 4.85058V7.26464C12.8987 6.91641 11.6502 6.96708 10.5165 7.40862C9.38283 7.85015 8.42876 8.65733 7.80534 9.70237C7.18193 10.7474 6.92479 11.9706 7.07463 13.1783C7.22447 14.386 7.77274 15.5092 8.63263 16.3701C9.49252 17.2309 10.6149 17.7803 11.8221 17.9312C13.0293 18.0822 14.2523 17.826 15.2976 17.2033C16.3428 16.5806 17.1506 15.6269 17.5929 14.4932C18.0353 13.3596 18.087 12.1107 17.7399 10.9443H20.1532ZM12.4993 14.8506C12.8586 14.8508 13.2132 14.7683 13.5356 14.6095C13.8579 14.4507 14.1395 14.2199 14.3584 13.9349C14.5773 13.6499 14.7278 13.3183 14.7982 12.9658C14.8686 12.6133 14.8569 12.2494 14.7642 11.9021L17.2354 9.4287L17.2822 9.38183H21.0935C21.1962 9.38201 21.2978 9.36196 21.3927 9.32281C21.4876 9.28367 21.5738 9.2262 21.6465 9.1537L24.7705 6.0287C24.8801 5.91944 24.9547 5.78011 24.9849 5.62838C25.0152 5.47664 24.9997 5.31934 24.9405 5.17642C24.8812 5.03349 24.7809 4.91137 24.6522 4.82555C24.5235 4.73972 24.3723 4.69405 24.2176 4.69433H20.3125V0.788082C20.3125 0.633684 20.2667 0.482757 20.181 0.35436C20.0953 0.225962 19.9735 0.125851 19.8309 0.0666694C19.6883 0.00748725 19.5314 -0.00811273 19.38 0.0218393C19.2286 0.0517913 19.0894 0.125952 18.9801 0.234957L15.8561 3.35995C15.7833 3.43251 15.7256 3.51872 15.6862 3.61363C15.6468 3.70855 15.6265 3.81031 15.6265 3.91308V7.72558C15.6104 7.74077 15.5948 7.7564 15.5796 7.77245L13.1085 10.2412C12.7857 10.1531 12.4479 10.135 12.1176 10.1883C11.7873 10.2416 11.4723 10.365 11.1936 10.5502C10.9149 10.7354 10.6791 10.9781 10.502 11.262C10.3249 11.5459 10.2105 11.8645 10.1667 12.1962C10.1228 12.528 10.1504 12.8653 10.2477 13.1855C10.3449 13.5057 10.5096 13.8014 10.7305 14.0527C10.9515 14.304 11.2237 14.505 11.5287 14.6424C11.8338 14.7797 12.1648 14.8502 12.4993 14.849V14.8506Z" fill="#EC2F2F"/>
</svg>
