<svg width="27" height="23" viewBox="0 0 27 23" fill="none" xmlns="http://www.w3.org/2000/svg">
<path d="M1 7.53301C1 1.45575 7.73077 1.45575 13.5 1.45575C19.2692 1.45575 26 1.45575 26 7.53301C26 14.4784 19.2692 6.66483 19.2692 6.66483H7.73077C7.73077 6.66483 1 14.4784 1 7.53301ZM8.69231 9.26937C8.69231 9.26937 3.88462 13.6103 3.88462 21.4239H23.1154C23.1154 13.6103 18.3077 9.26937 18.3077 9.26937H8.69231Z" stroke="#F3D8B7" stroke-width="1.5625" stroke-linecap="round" stroke-linejoin="round"/>
<path d="M13.5 18.8193C15.6242 18.8193 17.3462 17.2645 17.3462 15.3466C17.3462 13.4287 15.6242 11.8739 13.5 11.8739C11.3758 11.8739 9.65384 13.4287 9.65384 15.3466C9.65384 17.2645 11.3758 18.8193 13.5 18.8193Z" stroke="#F3D8B7" stroke-width="1.5625" stroke-linecap="round" stroke-linejoin="round"/>
</svg>
