<svg width="25" height="25" viewBox="0 0 25 25" fill="none" xmlns="http://www.w3.org/2000/svg">
<path d="M6.11111 22.7273H10.5556C10.5556 23.9773 9.55556 25 8.33333 25C7.11111 25 6.11111 23.9773 6.11111 22.7273ZM3.88889 21.5909H12.7778V19.3182H3.88889V21.5909ZM16.6667 10.7955C16.6667 15.1364 13.7111 17.4545 12.4778 18.1818H4.18889C2.95556 17.4545 0 15.1364 0 10.7955C0 6.09091 3.73333 2.27273 8.33333 2.27273C12.9333 2.27273 16.6667 6.09091 16.6667 10.7955ZM22.0778 8.375L20.5556 9.09091L22.0778 9.80682L22.7778 11.3636L23.4778 9.80682L25 9.09091L23.4778 8.375L22.7778 6.81818L22.0778 8.375ZM19.4444 6.81818L20.4889 4.47727L22.7778 3.40909L20.4889 2.34091L19.4444 0L18.4 2.34091L16.1111 3.40909L18.4 4.47727L19.4444 6.81818Z" fill="#EE8A52"/>
</svg>
