<svg width="18" height="26" viewBox="0 0 18 26" fill="none" xmlns="http://www.w3.org/2000/svg">
<path d="M4.50452 19.6793H13.4957V21.4622H4.50452V19.6793Z" fill="#FEBD2E"/>
<path d="M6.30276 23.2451H11.6975V25.0279H6.30276V23.2451Z" fill="#FEBD2E"/>
<path d="M9.0001 0.067749C6.61549 0.067749 4.32855 1.00693 2.64238 2.67869C0.956213 4.35045 0.00893168 6.61783 0.00893168 8.98206C-0.0518717 10.2776 0.198442 11.569 0.73928 12.7499C1.28012 13.9308 2.09602 14.9675 3.11988 15.7748C4.01899 16.6038 4.50452 17.0762 4.50452 17.8964H6.30275C6.30275 16.2561 5.30473 15.338 4.33368 14.4554C3.49333 13.8174 2.82359 12.9848 2.38312 12.0306C1.94265 11.0764 1.74489 10.0296 1.80717 8.98206C1.80717 7.09068 2.56499 5.27677 3.91393 3.93936C5.26286 2.60196 7.09241 1.85061 9.0001 1.85061C10.9078 1.85061 12.7373 2.60196 14.0863 3.93936C15.4352 5.27677 16.193 7.09068 16.193 8.98206C16.2543 10.0304 16.0551 11.0777 15.6131 12.0319C15.171 12.9862 14.4995 13.8184 13.6575 14.4554C12.6955 15.3469 11.6974 16.2383 11.6974 17.8964H13.4957C13.4957 17.0762 13.9722 16.6038 14.8803 15.7658C15.9035 14.96 16.719 13.9248 17.2598 12.7454C17.8007 11.566 18.0514 10.2762 17.9913 8.98206C17.9913 7.81141 17.7587 6.65223 17.3069 5.5707C16.855 4.48916 16.1927 3.50646 15.3578 2.67869C14.5229 1.85092 13.5317 1.1943 12.4409 0.74631C11.35 0.298324 10.1808 0.067749 9.0001 0.067749Z" fill="#FEBD2E"/>
</svg>
