<svg width="20" height="24" viewBox="0 0 20 24" fill="none" xmlns="http://www.w3.org/2000/svg">
<path d="M11.25 19V21.3333H18.75V23.6666H11.25C10.587 23.6666 9.95107 23.4208 9.48223 22.9832C9.01339 22.5456 8.75 21.9522 8.75 21.3333V19H5C3.67392 19 2.40215 18.5083 1.46447 17.6331C0.526784 16.758 0 15.571 0 14.3333V6.16665C0 5.85723 0.131696 5.56048 0.366117 5.34169C0.600537 5.1229 0.918479 4.99998 1.25 4.99998H5V0.333313H7.5V4.99998H12.5V0.333313H15V4.99998H18.75C19.0815 4.99998 19.3995 5.1229 19.6339 5.34169C19.8683 5.56048 20 5.85723 20 6.16665V14.3333C20 15.571 19.4732 16.758 18.5355 17.6331C17.5979 18.5083 16.3261 19 15 19H11.25ZM5 16.6666H15C15.663 16.6666 16.2989 16.4208 16.7678 15.9832C17.2366 15.5456 17.5 14.9522 17.5 14.3333V10.8333H2.5V14.3333C2.5 14.9522 2.76339 15.5456 3.23223 15.9832C3.70107 16.4208 4.33696 16.6666 5 16.6666ZM17.5 7.33331H2.5V8.49998H17.5V7.33331ZM10 14.9166C9.66848 14.9166 9.35054 14.7937 9.11612 14.5749C8.8817 14.3561 8.75 14.0594 8.75 13.75C8.75 13.4406 8.8817 13.1438 9.11612 12.925C9.35054 12.7062 9.66848 12.5833 10 12.5833C10.3315 12.5833 10.6495 12.7062 10.8839 12.925C11.1183 13.1438 11.25 13.4406 11.25 13.75C11.25 14.0594 11.1183 14.3561 10.8839 14.5749C10.6495 14.7937 10.3315 14.9166 10 14.9166Z" fill="#FEBD2E"/>
</svg>
