<svg width="24" height="26" viewBox="0 0 24 26" fill="none" xmlns="http://www.w3.org/2000/svg">
<path d="M14.4 2.82138H16.8L21.6 12.5281H22.8C23.1183 12.5281 23.4235 12.6742 23.6485 12.9343C23.8736 13.1943 24 13.547 24 13.9148C24 14.2825 23.8736 14.6353 23.6485 14.8953C23.4235 15.1554 23.1183 15.3015 22.8 15.3015H21.6V23.6215C21.6 23.9893 21.4736 24.342 21.2485 24.602C21.0235 24.8621 20.7183 25.0082 20.4 25.0082H19.2C18.8817 25.0082 18.5765 24.8621 18.3515 24.602C18.1264 24.342 18 23.9893 18 23.6215V22.2348H6V23.6215C6 23.9893 5.87357 24.342 5.64853 24.602C5.42348 24.8621 5.11826 25.0082 4.8 25.0082H3.6C3.28174 25.0082 2.97652 24.8621 2.75147 24.602C2.52643 24.342 2.4 23.9893 2.4 23.6215V15.3015H1.2C0.88174 15.3015 0.576516 15.1554 0.351472 14.8953C0.126428 14.6353 0 14.2825 0 13.9148C0 13.547 0.126428 13.1943 0.351472 12.9343C0.576516 12.6742 0.88174 12.5281 1.2 12.5281H2.4L7.2 2.82138H9.6V0.0480347H14.4V2.82138ZM19.032 12.5281L15.6 5.59473H8.4L4.968 12.5281H19.032ZM6.6 19.4615C7.07739 19.4615 7.53523 19.2423 7.87279 18.8523C8.21036 18.4622 8.4 17.9331 8.4 17.3815C8.4 16.8298 8.21036 16.3008 7.87279 15.9107C7.53523 15.5206 7.07739 15.3015 6.6 15.3015C6.12261 15.3015 5.66477 15.5206 5.32721 15.9107C4.98964 16.3008 4.8 16.8298 4.8 17.3815C4.8 17.9331 4.98964 18.4622 5.32721 18.8523C5.66477 19.2423 6.12261 19.4615 6.6 19.4615ZM17.4 19.4615C17.8774 19.4615 18.3352 19.2423 18.6728 18.8523C19.0104 18.4622 19.2 17.9331 19.2 17.3815C19.2 16.8298 19.0104 16.3008 18.6728 15.9107C18.3352 15.5206 17.8774 15.3015 17.4 15.3015C16.9226 15.3015 16.4648 15.5206 16.1272 15.9107C15.7896 16.3008 15.6 16.8298 15.6 17.3815C15.6 17.9331 15.7896 18.4622 16.1272 18.8523C16.4648 19.2423 16.9226 19.4615 17.4 19.4615Z" fill="#F3D8B7"/>
</svg>
