<svg width="25" height="26" viewBox="0 0 25 26" fill="none" xmlns="http://www.w3.org/2000/svg">
<path d="M21.875 25.4191H3.125C2.26237 25.4191 1.52588 25.1144 0.915527 24.5051C0.305176 23.8957 0 23.1604 0 22.2991V11.379C0 10.5178 0.305176 9.78248 0.915527 9.1731C1.52588 8.56372 2.26237 8.25903 3.125 8.25903H11.6211L6.83594 3.45713C6.64062 3.53838 6.44531 3.579 6.25 3.579C5.82682 3.579 5.46061 3.42463 5.15137 3.11587C4.84212 2.80712 4.6875 2.43743 4.6875 2.00681C4.6875 1.57618 4.84212 1.21055 5.15137 0.909924C5.46061 0.609298 5.83089 0.458984 6.26221 0.458984C6.69352 0.458984 7.05973 0.609298 7.36084 0.909924C7.66195 1.21055 7.8125 1.58024 7.8125 2.01899C7.8125 2.21399 7.77181 2.409 7.69043 2.604L12.5 7.38152L17.3096 2.604C17.2282 2.409 17.1875 2.21399 17.1875 2.01899C17.1875 1.58024 17.3421 1.21055 17.6514 0.909924C17.9606 0.609298 18.3309 0.458984 18.7622 0.458984C19.1935 0.458984 19.5597 0.609298 19.8608 0.909924C20.1619 1.21055 20.3125 1.57618 20.3125 2.00681C20.3125 2.43743 20.1619 2.80712 19.8608 3.11587C19.5597 3.42463 19.1895 3.579 18.75 3.579C18.5547 3.579 18.3594 3.53838 18.1641 3.45713L13.3789 8.25903H21.875C22.7376 8.25903 23.4741 8.56372 24.0845 9.1731C24.6948 9.78248 25 10.5178 25 11.379V22.2991C25 23.1604 24.6948 23.8957 24.0845 24.5051C23.4741 25.1144 22.7376 25.4191 21.875 25.4191ZM17.1875 15.5959C17.1875 12.9147 16.6667 11.509 15.625 11.379H3.125C2.81576 11.4278 2.55534 11.5659 2.34375 11.7934C2.13216 12.0209 1.97754 12.2606 1.87988 12.5125C1.78223 12.7644 1.70492 13.0975 1.64795 13.5119C1.59098 13.9262 1.5625 14.2431 1.5625 14.4625V18.0822C1.5625 18.4722 1.57878 18.8582 1.61133 19.24C1.64388 19.6219 1.70898 20.0525 1.80664 20.5319C1.9043 21.0113 2.06299 21.4135 2.28271 21.7385C2.50244 22.0635 2.7832 22.2504 3.125 22.2991H15.625C15.8691 22.2666 16.0889 22.1732 16.2842 22.0188C16.4795 21.8644 16.63 21.645 16.7358 21.3607C16.8416 21.0763 16.9271 20.8122 16.9922 20.5685C17.0573 20.3247 17.1021 20.016 17.1265 19.6422C17.1509 19.2685 17.1672 18.9922 17.1753 18.8135C17.1834 18.6347 17.1875 18.391 17.1875 18.0822V15.5959ZM22.6562 11.379H19.5312C19.3197 11.379 19.1366 11.4562 18.9819 11.6106C18.8273 11.765 18.75 11.9478 18.75 12.1591C18.75 12.3703 18.8273 12.5531 18.9819 12.7075C19.1366 12.8619 19.3197 12.9391 19.5312 12.9391H22.6562C22.8678 12.9391 23.0509 12.8619 23.2056 12.7075C23.3602 12.5531 23.4375 12.3703 23.4375 12.1591C23.4375 11.9478 23.3602 11.765 23.2056 11.6106C23.0509 11.4562 22.8678 11.379 22.6562 11.379ZM22.6562 14.4991H19.5312C19.3197 14.4991 19.1366 14.5763 18.9819 14.7306C18.8273 14.885 18.75 15.0678 18.75 15.2791C18.75 15.4903 18.8273 15.6731 18.9819 15.8275C19.1366 15.9819 19.3197 16.0591 19.5312 16.0591H22.6562C22.8678 16.0591 23.0509 15.9819 23.2056 15.8275C23.3602 15.6731 23.4375 15.4903 23.4375 15.2791C23.4375 15.0678 23.3602 14.885 23.2056 14.7306C23.0509 14.5763 22.8678 14.4991 22.6562 14.4991ZM22.6562 17.6191H19.5312C19.3197 17.6191 19.1366 17.6963 18.9819 17.8506C18.8273 18.005 18.75 18.1878 18.75 18.3991C18.75 18.6103 18.8273 18.7932 18.9819 18.9475C19.1366 19.1019 19.3197 19.1791 19.5312 19.1791H22.6562C22.8678 19.1791 23.0509 19.1019 23.2056 18.9475C23.3602 18.7932 23.4375 18.6103 23.4375 18.3991C23.4375 18.1878 23.3602 18.005 23.2056 17.8506C23.0509 17.6963 22.8678 17.6191 22.6562 17.6191ZM22.6562 20.7391H19.5312C19.3197 20.7391 19.1366 20.8163 18.9819 20.9707C18.8273 21.125 18.75 21.3079 18.75 21.5191C18.75 21.7304 18.8273 21.9132 18.9819 22.0675C19.1366 22.2219 19.3197 22.2991 19.5312 22.2991H22.6562C22.8678 22.2991 23.0509 22.2219 23.2056 22.0675C23.3602 21.9132 23.4375 21.7304 23.4375 21.5191C23.4375 21.3079 23.3602 21.125 23.2056 20.9707C23.0509 20.8163 22.8678 20.7391 22.6562 20.7391Z" fill="#EC2F2F"/>
</svg>
