<svg width="28" height="24" viewBox="0 0 28 24" fill="none" xmlns="http://www.w3.org/2000/svg">
<path d="M27.3643 5.58618L24.414 0.939692C24.1503 0.522584 23.6821 0.266937 23.182 0.266937H4.8162C4.31614 0.266937 3.8479 0.522584 3.58423 0.939692L0.633881 5.58618C-0.889028 7.98567 0.461133 11.3225 3.30693 11.7038C3.5115 11.7307 3.72061 11.7441 3.92973 11.7441C5.27534 11.7441 6.46639 11.1611 7.28467 10.2596C8.10295 11.1611 9.29855 11.7441 10.6396 11.7441C11.9852 11.7441 13.1763 11.1611 13.9946 10.2596C14.8128 11.1611 16.0084 11.7441 17.3495 11.7441C18.6951 11.7441 19.8862 11.1611 20.7045 10.2596C21.5273 11.1611 22.7183 11.7441 24.0594 11.7441C24.2731 11.7441 24.4776 11.7307 24.6822 11.7038C27.5371 11.327 28.8918 7.99016 27.3643 5.58618ZM24.0685 13.1838C23.6139 13.1838 23.1638 13.1165 22.7274 13.0134V17.4894H5.2708V13.0134C4.83438 13.1121 4.38433 13.1838 3.92973 13.1838C3.65697 13.1838 3.37966 13.1659 3.11145 13.13C2.85687 13.0941 2.60684 13.0358 2.36591 12.9685V21.7951C2.36591 22.5889 3.01598 23.2303 3.82062 23.2303H24.1867C24.9913 23.2303 25.6414 22.5889 25.6414 21.7951V12.9685C25.3959 13.0403 25.1504 13.0986 24.8959 13.13C24.6186 13.1659 24.3458 13.1838 24.0685 13.1838Z" fill="#B54C8F"/>
</svg>
